<svg width="150" height="150" viewBox="0 0 150 150" fill="none"
  xmlns="http://www.w3.org/2000/svg">
  <path d="M93.1091 23.9868C93.5152 23.9898 93.9213 23.9924 94.3274 23.9948C95.3068 24.0017 96.2862 24.0112 97.2656 24.0234C96.5377 24.7796 95.8076 25.2793 94.9036 25.8179C92.5777 27.2831 89.7605 29.0978 89.0625 31.9336C88.8286 34.1957 89.9999 36.1929 91.1133 38.0859C91.3066 38.2793 91.5 38.4727 91.6992 38.6719C91.7611 39.4449 91.7611 39.4449 91.7461 40.4205C91.7429 40.7755 91.7397 41.1305 91.7364 41.4963C91.7302 41.8694 91.7239 42.2425 91.7175 42.627C91.6837 45.0422 91.6764 47.4065 91.9922 49.8047C91.7301 49.9856 91.468 50.1665 91.198 50.3529C89.1794 51.7618 87.2963 53.1925 85.5148 54.8973C84.9609 55.3711 84.9609 55.3711 84.375 55.3711C84.2572 55.6068 84.2572 55.6068 84.137 55.8472C83.5236 57.074 83.5236 57.074 82.9102 58.3008C84.8273 59.8213 87.0131 59.6661 89.3555 59.4727C94.1719 58.6874 99.3013 56.3036 102.374 52.4231C103.938 50.1281 104.29 48.1624 104.004 45.4102C103.255 42.1835 100.745 38.9153 98.1445 36.9141C97.1795 36.5876 97.1795 36.5876 96.3867 36.6211C96.7373 35.6396 97.2713 35.0818 98.1583 34.5371C101.21 33.1518 104.39 33.7732 107.501 34.552C117.461 36.9879 128.95 36.2888 138.789 33.7166C141.664 32.9684 144.668 32.5141 147.363 33.9844C147.363 34.3711 147.363 34.7578 147.363 35.1563C147.098 35.2061 146.832 35.256 146.559 35.3073C144.44 35.7288 142.531 36.1851 140.625 37.207C140.215 37.424 140.215 37.424 139.796 37.6453C134.701 40.4739 130.595 44.5326 128.613 50.0977C126.969 56.0025 128.71 62.6511 130.92 68.1885C131.257 69.1618 131.272 69.3884 130.957 70.3125C130.474 70.796 129.919 70.6556 129.254 70.6604C128.062 70.6512 126.947 70.5459 125.775 70.3308C120.464 69.3758 115.066 69.4174 110.357 72.3908C103.373 77.3117 98.6163 86.6676 96.9727 94.9219C96.8253 96.1346 96.7486 97.3463 96.6797 98.5657C96.1699 105.925 96.1699 105.925 94.3359 107.813C93.5303 107.922 93.5303 107.922 92.8711 107.813C92.3807 106.832 92.4584 105.721 92.3985 104.64C92.3658 104.101 92.3329 103.562 92.2997 103.023C92.2826 102.741 92.2655 102.458 92.2478 102.167C91.9543 97.4372 91.6136 92.8073 90.5273 88.1836C90.4162 87.6983 90.4162 87.6983 90.3028 87.2033C89.8787 85.3535 89.445 83.5063 89.0041 81.6605C88.6448 80.1414 88.3095 78.6207 87.9948 77.092C87.8803 76.5372 87.8803 76.5372 87.7635 75.9712C87.6204 75.2705 87.4799 74.5693 87.3426 73.8675C86.7527 70.9873 85.9738 68.8191 83.4961 67.0898C82.5339 66.4774 81.5583 65.8949 80.5664 65.332C80.3847 68.3741 81.1523 70.9624 82.1594 73.8098C83.5707 77.9477 84.1845 82.0552 84.2102 86.4258C84.2132 86.7471 84.2161 87.0684 84.2191 87.3994C84.1975 89.4376 83.9017 91.2631 83.3623 93.2293C83.2034 94.0414 83.1986 94.4535 83.4961 95.2148C83.9322 95.7658 83.9322 95.7658 84.4666 96.2952C86.7946 98.8527 87.1768 101.716 87.1113 105.057C86.8385 110.327 82.019 114.249 78.3783 117.55C78.0109 117.867 77.6429 118.184 77.2739 118.499C75.0319 120.438 72.5729 122.848 72.2832 125.957C72.1685 129.912 73.389 132.391 75.9109 135.385C76.5639 136.382 76.7102 137.097 76.7578 138.281C76.2817 139.014 76.2817 139.014 75.5859 139.453C74.587 139.413 74.2189 139.264 73.5271 138.53C72.9372 137.669 72.3491 136.81 71.7773 135.938C71.6157 135.696 71.4541 135.455 71.2875 135.206C68.6427 131.055 67.5223 126.429 68.369 121.55C69.5483 116.786 73.3318 112.422 77.0977 109.392C78.6475 108.087 80.2735 106.27 80.603 104.205C80.5668 103.136 80.3977 102.349 79.9805 101.367C79.6965 101.621 79.4125 101.875 79.1199 102.136C75.5632 105.143 75.5632 105.143 73.1106 105.242C71.2717 105.079 69.6929 104.408 68.4082 103.07C67.0112 101.206 66.9492 99.1132 67.2283 96.8674C67.6548 94.7319 68.5759 93.5664 70.3411 92.3229C71.5724 91.5922 72.789 91.6355 74.176 91.626C74.4969 91.6169 74.4969 91.6169 74.8243 91.6077C76.4367 91.5962 77.6208 91.9409 79.1016 92.5781C80.071 83.7655 78.4207 78.4869 73.7166 71.0479C72.7844 69.5664 71.9456 68.0839 71.1914 66.5039C70.6759 66.8043 70.1639 67.1107 69.6533 67.4194C69.3678 67.5894 69.0823 67.7593 68.7881 67.9344C67.2633 69.0887 66.6572 70.4911 66.1995 72.3106C66.1275 72.595 66.1275 72.595 66.0541 72.8851C65.5532 74.9095 65.1523 76.9543 64.7605 79.002C64.1279 82.3051 63.4476 85.5816 62.6221 88.8428C61.222 94.4846 60.8019 100.082 60.6907 105.882C60.6442 106.647 60.5195 107.359 60.3516 108.105C59.6924 108.215 59.6924 108.215 58.8867 108.105C56.6555 105.809 56.7756 101.964 56.5796 98.9685C56.0067 90.7623 52.5115 83.0012 47.168 76.7578C47.0135 76.5577 46.859 76.3575 46.6999 76.1513C43.9575 72.7148 40.1186 70.8251 35.8337 70.1397C32.7246 69.8466 29.6815 70.224 26.6201 70.7691C25.7685 70.9004 24.9579 70.9474 24.0967 70.9534C23.8202 70.9575 23.5438 70.9617 23.259 70.966C22.5586 70.8984 22.5586 70.8984 21.9727 70.3125C22.0723 68.9124 22.4233 67.7444 22.9431 66.449C24.8137 61.3578 26.3605 54.6812 24.1299 49.5255C23.0205 47.1289 21.7108 45.0232 19.9219 43.0664C19.767 42.8882 19.6122 42.7099 19.4527 42.5262C15.9316 38.7103 10.921 36.2569 5.85938 35.4492C5.95605 34.9658 6.05273 34.4824 6.15234 33.9844C9.35402 32.5614 12.8279 33.6384 16.0559 34.4163C25.6685 36.7184 36.7148 37.0997 46.3449 34.6889C49.2427 33.9641 52.2459 33.5505 55.0644 34.8301C55.9812 35.3931 56.4007 35.9553 56.8359 36.9141C56.6482 37.0916 56.4605 37.2691 56.2672 37.4519C53.3851 40.2438 50.9281 43.1103 50.6104 47.2412C50.8061 50.1772 52.2191 52.4301 54.3034 54.4487C58.3034 57.6984 63.3747 59.5407 68.4998 59.491C68.7586 59.4897 69.0175 59.4883 69.2842 59.487C69.92 59.4835 70.5557 59.4783 71.1914 59.4727C71.1721 58.947 71.1721 58.947 71.1525 58.4106C71.1571 54.9338 73.5101 52.1685 75.8057 49.8047C77.3632 48.2776 79.022 46.8338 80.8376 45.6184C81.5361 45.1284 81.9757 44.7089 82.2327 43.887C82.4607 42.5736 82.4607 42.5735 81.9935 41.375C81.1918 40.8494 80.6395 40.9484 79.6875 41.0156C78.938 41.2412 78.2325 41.4806 77.5063 41.7641C77.3034 41.8407 77.1006 41.9174 76.8916 41.9963C76.2478 42.2405 75.6056 42.4886 74.9634 42.7368C74.5297 42.9015 74.096 43.0659 73.6622 43.2301C71.6237 43.9785 71.6237 43.9785 69.6479 44.8707C68.865 45.2511 68.2414 45.1947 67.3828 45.1172C66.5062 44.7968 66.5062 44.7968 65.6616 44.3848C65.3784 44.2488 65.0951 44.1129 64.8033 43.9728C64.5911 43.867 64.3788 43.7613 64.1602 43.6523C64.316 41.9969 64.7614 40.6974 65.4785 39.2029C65.6337 38.8769 65.6337 38.8769 65.792 38.5443C66.7827 36.5336 67.9974 34.83 69.4336 33.1055C69.5983 32.8932 69.7629 32.681 69.9326 32.4623C74.1733 27.2129 80.9899 25.0814 87.4286 24.1339C89.32 23.9345 91.2098 23.9624 93.1091 23.9868ZM71.1914 96.6797C70.8758 98.1608 70.7537 99.1129 71.4844 100.488C72.4258 100.766 72.4258 100.766 73.5352 100.781C74.8704 99.9339 75.6509 99.089 76.1719 97.5586C76.013 96.874 76.013 96.874 75.5859 96.3867C74.8642 96.0258 74.3586 96.0447 73.5535 96.0388C73.1688 96.0326 73.1688 96.0326 72.7764 96.0262C71.9934 96.0449 71.9934 96.0449 71.1914 96.6797Z" fill="black"/>
</svg>
