<svg width="151" height="124" viewBox="0 0 151 124" fill="none"
  xmlns="http://www.w3.org/2000/svg">
  <path d="M93.3873 0.809499C93.8177 0.812625 94.2482 0.815457 94.6786 0.817991C95.7169 0.825227 96.7551 0.835385 97.7933 0.848319C97.0217 1.6499 96.2478 2.17962 95.2895 2.75049C92.8239 4.3037 89.8375 6.22735 89.0977 9.23341C88.8498 11.6313 90.0914 13.7485 91.2716 15.7552C91.4766 15.9601 91.6815 16.1651 91.8927 16.3763C91.9583 17.1957 91.9583 17.1957 91.9425 18.2299C91.939 18.6062 91.9356 18.9825 91.9321 19.3703C91.9255 19.7658 91.9189 20.1613 91.9121 20.5688C91.8763 23.1291 91.8685 25.6354 92.2033 28.1775C91.9254 28.3693 91.6476 28.561 91.3614 28.7586C89.2216 30.2521 87.2254 31.7688 85.337 33.5759C84.7499 34.0781 84.7499 34.0781 84.1287 34.0781C84.0038 34.3279 84.0038 34.3279 83.8764 34.5828C83.2262 35.8833 83.2262 35.8833 82.5759 37.1837C84.6082 38.7955 86.9252 38.631 89.4082 38.426C94.5138 37.5936 99.9512 35.0666 103.209 30.9531C104.867 28.5204 105.239 26.4366 104.936 23.5191C104.142 20.0987 101.482 16.6343 98.725 14.5129C97.702 14.1668 97.702 14.1668 96.8617 14.2024C97.2333 13.1619 97.7994 12.5706 98.7396 11.9933C101.974 10.5248 105.346 11.1834 108.643 12.009C119.201 14.5912 131.38 13.8502 141.81 11.1235C144.858 10.3303 148.042 9.84877 150.899 11.4073C150.899 11.8173 150.899 12.2272 150.899 12.6496C150.617 12.7024 150.336 12.7552 150.046 12.8097C147.801 13.2564 145.776 13.7401 143.756 14.8235C143.321 15.0535 143.321 15.0535 142.878 15.2881C137.477 18.2864 133.124 22.5889 131.023 28.4881C129.28 34.7475 131.125 41.7953 133.469 47.6651C133.826 48.6969 133.841 48.937 133.508 49.9166C132.995 50.4292 132.408 50.2804 131.702 50.2854C130.439 50.2757 129.257 50.1641 128.015 49.9361C122.385 48.9237 116.663 48.9678 111.67 52.1197C104.268 57.3361 99.2251 67.2537 97.4828 76.0036C97.3266 77.2891 97.2453 78.5736 97.1722 79.8662C96.6319 87.6669 96.6319 87.6669 94.6877 89.6682C93.8337 89.7847 93.8337 89.7847 93.135 89.6682C92.6151 88.6286 92.6975 87.4513 92.6339 86.3054C92.5993 85.7341 92.5644 85.1628 92.5293 84.5915C92.5111 84.292 92.4929 83.9925 92.4742 83.684C92.1631 78.6699 91.802 73.7621 90.6505 68.8607C90.5326 68.3463 90.5326 68.3463 90.4124 67.8215C89.9629 65.8607 89.5031 63.9026 89.0358 61.9459C88.6549 60.3357 88.2994 58.7237 87.9658 57.1032C87.8445 56.5151 87.8445 56.5151 87.7206 55.9151C87.569 55.1723 87.4201 54.429 87.2745 53.685C86.6492 50.6319 85.8235 48.3336 83.1971 46.5005C82.1771 45.8513 81.1429 45.2337 80.0915 44.6371C79.8988 47.8619 80.7125 50.6056 81.7801 53.6239C83.2761 58.0103 83.9268 62.3644 83.954 66.9974C83.9572 67.338 83.9603 67.6785 83.9635 68.0294C83.9406 70.1901 83.627 72.1251 83.0552 74.2094C82.8868 75.0703 82.8817 75.5071 83.1971 76.3142C83.6593 76.8982 83.6593 76.8982 84.2258 77.4593C86.6936 80.1704 87.0988 83.2055 87.0293 86.747C86.7401 92.3335 81.6312 96.4917 77.772 99.9906C77.3825 100.327 76.9924 100.662 76.6013 100.996C74.2246 103.052 71.6181 105.607 71.3109 108.902C71.1894 113.095 72.4831 115.722 75.1565 118.896C75.8486 119.953 76.0037 120.711 76.0542 121.966C75.5495 122.743 75.5495 122.743 74.812 123.209C73.7531 123.166 73.3629 123.008 72.6296 122.23C72.0042 121.318 71.3808 120.407 70.7747 119.482C70.6034 119.226 70.432 118.97 70.2555 118.707C67.4518 114.306 66.2642 109.402 67.1617 104.23C68.4118 99.1805 72.4225 94.5544 76.4145 91.3423C78.0574 89.9593 79.781 88.033 80.1303 85.8444C80.0919 84.7106 79.9126 83.8764 79.4704 82.8359C79.1693 83.1049 78.8683 83.3739 78.5581 83.6511C74.7879 86.8384 74.7879 86.8384 72.188 86.9435C70.2387 86.7704 68.5651 86.059 67.2033 84.641C65.7224 82.6652 65.6566 80.4466 65.9525 78.0659C66.4046 75.8022 67.381 74.5667 69.2522 73.2486C70.5575 72.474 71.8471 72.5199 73.3174 72.5098C73.6576 72.5002 73.6576 72.5002 74.0046 72.4904C75.7138 72.4783 76.969 72.8436 78.5387 73.5191C79.5663 64.1774 77.8169 58.5818 72.8304 50.6961C71.8422 49.1257 70.9531 47.5542 70.1536 45.8794C69.6071 46.1978 69.0644 46.5226 68.5231 46.8499C68.2205 47.03 67.9179 47.2102 67.606 47.3958C65.9897 48.6193 65.3471 50.106 64.8619 52.0347C64.7857 52.3362 64.7857 52.3362 64.7078 52.6437C64.1769 54.7897 63.7519 56.9572 63.3366 59.1279C62.6659 62.6292 61.9448 66.1026 61.0697 69.5595C59.5856 75.54 59.1402 81.4734 59.0224 87.6218C58.9731 88.4324 58.8409 89.1873 58.6629 89.9788C57.9641 90.0952 57.9641 90.0952 57.1101 89.9788C54.7449 87.544 54.8722 83.4686 54.6645 80.2932C54.0571 71.5942 50.3521 63.3672 44.6877 56.7489C44.524 56.5368 44.3603 56.3246 44.1916 56.106C41.2845 52.4632 37.2151 50.46 32.673 49.7335C29.3772 49.4227 26.1513 49.8228 22.9062 50.4007C22.0034 50.5398 21.1442 50.5897 20.2312 50.596C19.9382 50.6004 19.6451 50.6048 19.3432 50.6093C18.6008 50.5378 18.6008 50.5378 17.9797 49.9166C18.0853 48.4324 18.4574 47.1944 19.0084 45.8211C20.9913 40.4243 22.631 33.3468 20.2664 27.8815C19.0904 25.3411 17.7021 23.109 15.8058 21.0347C15.6416 20.8457 15.4775 20.6567 15.3084 20.4621C11.5759 16.417 6.26451 13.8163 0.898926 12.9601C1.00141 12.4477 1.10389 11.9353 1.20948 11.4073C4.6034 9.89892 8.28584 11.0406 11.7077 11.8651C21.8974 14.3055 33.6069 14.7097 43.8152 12.1542C46.887 11.3858 50.0706 10.9474 53.0583 12.3038C54.0301 12.9006 54.4748 13.4966 54.9362 14.5129C54.7372 14.7011 54.5383 14.8892 54.3333 15.0831C51.2782 18.0426 48.6737 21.0812 48.3368 25.4601C48.5443 28.5724 50.0421 30.9606 52.2516 33.1004C56.4918 36.5451 61.8676 38.498 67.3003 38.4454C67.5747 38.444 67.8492 38.4426 68.1319 38.4411C68.8058 38.4375 69.4797 38.4319 70.1536 38.426C70.1332 37.8687 70.1332 37.8687 70.1123 37.3002C70.1172 33.6146 72.6115 30.6832 75.0449 28.1775C76.696 26.5588 78.4543 25.0282 80.379 23.7399C81.1193 23.2204 81.5854 22.7757 81.8578 21.9045C82.0995 20.5122 82.0995 20.5122 81.6042 19.2417C80.7544 18.6846 80.169 18.7895 79.1598 18.8607C78.3653 19.0998 77.6174 19.3537 76.8476 19.6541C76.6326 19.7354 76.4176 19.8166 76.1961 19.9003C75.5136 20.1591 74.8329 20.4222 74.152 20.6853C73.6924 20.8598 73.2326 21.0341 72.7727 21.2081C70.6118 22.0015 70.6118 22.0015 68.5174 22.9473C67.6875 23.3506 67.0264 23.2907 66.1163 23.2086C65.1871 22.8689 65.1871 22.8689 64.2918 22.4322C63.9915 22.2881 63.6913 22.1439 63.3819 21.9954C63.157 21.8834 62.932 21.7713 62.7002 21.6558C62.8653 19.9009 63.3375 18.5234 64.0977 16.9392C64.2622 16.5936 64.2622 16.5936 64.43 16.2411C65.4802 14.1096 66.7678 12.3037 68.2902 10.4756C68.4648 10.2507 68.6393 10.0257 68.8192 9.79387C73.3145 4.22923 80.5404 1.96979 87.3656 0.965461C89.3707 0.754041 91.3739 0.783634 93.3873 0.809499ZM70.1536 77.867C69.819 79.437 69.6896 80.4462 70.4641 81.9042C71.4621 82.199 71.4621 82.199 72.6381 82.2148C74.0535 81.3165 74.8808 80.4209 75.4331 78.7986C75.2647 78.073 75.2647 78.073 74.812 77.5564C74.0468 77.1738 73.5109 77.1939 72.6575 77.1876C72.2497 77.181 72.2497 77.181 71.8338 77.1743C71.0038 77.1941 71.0038 77.1941 70.1536 77.867Z" fill="white"/>
</svg>
