<svg width="90" height="90" viewBox="0 0 90 90" fill="none"
  xmlns="http://www.w3.org/2000/svg">
  <g clip-path="url(#clip0_39_58)">
    <path d="M14.5899 2.46096C15.0193 2.85066 15.4261 3.25971 15.8314 3.67426C15.999 3.84322 15.999 3.84322 16.1699 4.01559C16.523 4.37179 16.8749 4.72914 17.2266 5.08669C17.5785 5.44346 17.9307 5.79995 18.2834 6.15591C18.5014 6.37611 18.7191 6.59678 18.9361 6.81802C19.4279 7.31546 19.9255 7.79245 20.4602 8.2437C21.555 9.19779 22.5668 10.239 23.5915 11.2668C23.8237 11.4991 24.056 11.7313 24.2883 11.9635C24.9155 12.5906 25.5421 13.2183 26.1686 13.846C26.8247 14.5032 27.4813 15.1599 28.1378 15.8166C29.3795 17.0589 30.6207 18.3015 31.8617 19.5443C33.2753 20.9599 34.6894 22.3749 36.1035 23.7899C39.011 26.6992 41.9178 29.6092 44.8243 32.5196C45.684 31.8037 46.4911 31.0526 47.2787 30.2586C47.3955 30.1415 47.5123 30.0245 47.6327 29.9039C48.0211 29.5145 48.4089 29.1245 48.7968 28.7345C49.0763 28.454 49.356 28.1735 49.6356 27.8931C50.2365 27.2905 50.837 26.6877 51.4374 26.0847C52.3877 25.1303 53.3388 24.1769 54.2901 23.2236C55.6245 21.8864 56.9587 20.549 58.2926 19.2113C58.4194 19.0841 58.4194 19.0841 58.5488 18.9544C59.9183 17.581 61.2872 16.2069 62.6559 14.8326C64.064 13.4187 65.4733 12.0059 66.8833 10.5938C67.8284 9.64734 68.7723 8.6997 69.7154 7.75121C70.3035 7.16031 70.8926 6.57053 71.4822 5.98106C71.7543 5.7085 72.026 5.4355 72.2971 5.162C74.7441 2.69504 76.9646 0.675694 80.5958 0.648218C82.7789 0.644688 84.3811 1.14076 86.1329 2.46096C86.2852 2.56248 86.4374 2.66399 86.5943 2.76858C88.199 4.28881 89.1844 6.41885 89.3327 8.61468C89.3731 11.3055 88.6537 13.4707 86.8004 15.4253C86.1477 16.0943 85.4844 16.7521 84.8198 17.409C84.5216 17.707 84.2235 18.0052 83.9257 18.3035C83.2034 19.026 82.4792 19.7464 81.7541 20.4659C80.9096 21.3041 80.0677 22.1447 79.2259 22.9855C77.7249 24.4845 76.222 25.9816 74.7178 27.4775C73.2576 28.9297 71.7982 30.3828 70.3401 31.8372C70.2501 31.927 70.1601 32.0168 70.0673 32.1093C69.6156 32.5598 69.1639 33.0104 68.7122 33.461C64.9712 37.193 61.2269 40.9217 57.4806 44.6485C57.7929 45.317 58.1813 45.7445 58.7058 46.2687C58.7955 46.3589 58.8853 46.4491 58.9777 46.542C59.2786 46.8438 59.5807 47.1444 59.8829 47.445C60.0989 47.6613 60.3149 47.8776 60.5308 48.094C61.1177 48.6817 61.7057 49.2684 62.2939 49.8548C62.9099 50.4692 63.5249 51.0846 64.1401 51.6998C65.1742 52.7338 66.209 53.767 67.2442 54.7999C68.439 55.9919 69.6329 57.1848 70.8262 58.3783C72.0983 59.6505 73.371 60.922 74.644 62.1934C75.0097 62.5587 75.3753 62.9241 75.7408 63.2896C76.3172 63.8659 76.8941 64.4416 77.4713 65.0171C77.6823 65.2276 77.8932 65.4383 78.1039 65.6491C79.0792 66.6246 80.0544 67.5907 81.1037 68.4877C81.463 68.7958 81.8029 69.1207 82.1401 69.4527C82.2698 69.5801 82.3994 69.7075 82.533 69.8387C82.668 69.9724 82.803 70.1061 82.9421 70.2439C83.0854 70.3858 83.2288 70.5277 83.3765 70.674C83.6776 70.9727 83.9785 71.2717 84.2792 71.571C84.5843 71.8741 84.8903 72.1765 85.197 72.478C85.6447 72.9181 86.0898 73.3605 86.5346 73.8034C86.6699 73.9357 86.8053 74.068 86.9447 74.2043C88.9416 76.2091 90.0564 78.37 90.088 81.211C90.0611 83.6235 89.368 85.4594 87.6971 87.2267C85.8034 89.0166 83.5718 89.6633 81.0043 89.6443C78.2171 89.5041 75.9859 88.4102 74.0444 86.4336C73.9187 86.3085 73.793 86.1834 73.6635 86.0545C73.247 85.6392 72.8331 85.2214 72.4191 84.8036C72.1194 84.5037 71.8196 84.2039 71.5195 83.9043C70.7926 83.1775 70.0672 82.4491 69.3426 81.72C68.4986 80.871 67.6526 80.024 66.8065 79.1771C65.298 77.667 63.791 76.1553 62.285 74.6427C60.8229 73.1741 59.36 71.7063 57.8961 70.2394C57.8058 70.1488 57.7154 70.0583 57.6223 69.965C57.1689 69.5106 56.7154 69.0563 56.262 68.602C52.5058 64.8385 48.7521 61.0724 45.0001 57.3047C44.1301 58.0337 43.3137 58.7923 42.5159 59.5991C42.3959 59.7197 42.2758 59.8403 42.1522 59.9646C41.7528 60.3662 41.3541 60.7683 40.9553 61.1705C40.6679 61.4596 40.3805 61.7487 40.0931 62.0378C39.4753 62.6591 38.8577 63.2807 38.2403 63.9024C37.2628 64.8864 36.2842 65.8694 35.3052 66.852C35.1381 67.0198 34.971 67.1876 34.8038 67.3554C34.5506 67.6096 34.2974 67.8638 34.0441 68.118C33.091 69.0747 32.138 70.0315 31.1852 70.9885C31.0982 71.0759 31.0112 71.1633 30.9215 71.2533C29.5124 72.6686 28.1049 74.0856 26.6979 75.503C25.2499 76.9616 23.8 78.4181 22.3482 79.8729C21.5345 80.6884 20.7218 81.5049 19.9114 82.3237C19.1487 83.0943 18.3836 83.8624 17.6165 84.6286C17.3365 84.9092 17.0573 85.1907 16.7792 85.4732C14.5087 87.7775 12.4797 89.4872 9.10166 89.5395C6.44556 89.5347 4.26898 89.2582 2.25846 87.3571C0.360144 85.3528 -0.108299 83.1806 -0.0548464 80.5023C0.129026 76.4388 3.88412 73.609 6.55734 70.9424C6.84168 70.6581 7.12598 70.3737 7.41024 70.0894C8.17603 69.3235 8.94236 68.5582 9.70878 67.793C10.5119 66.991 11.3145 66.1885 12.1172 65.386C13.4625 64.0412 14.8082 62.6966 16.1541 61.3523C17.5393 59.9687 18.9243 58.5849 20.3091 57.2009C20.3947 57.1153 20.4803 57.0297 20.5685 56.9416C20.998 56.5123 21.4275 56.083 21.857 55.6538C25.4107 52.1019 28.9649 48.5508 32.5196 45C31.7908 44.1301 31.0323 43.3143 30.2253 42.517C30.1046 42.3971 29.984 42.2772 29.8597 42.1537C29.4582 41.7547 29.056 41.3564 28.6538 40.958C28.3647 40.671 28.0756 40.3838 27.7865 40.0966C27.1652 39.4794 26.5437 38.8625 25.922 38.2456C24.9378 37.2689 23.9549 36.2909 22.9723 35.3126C22.8045 35.1456 22.6367 34.9786 22.469 34.8115C22.1294 34.4734 21.7898 34.1353 21.4502 33.7973C20.5789 32.9297 19.7074 32.0622 18.8358 31.1948C18.7047 31.0643 18.7047 31.0643 18.571 30.9312C17.1559 29.5231 15.7389 28.1169 14.3213 26.7114C12.8624 25.2648 11.4059 23.8158 9.95144 22.3647C9.13611 21.5515 8.31971 20.7394 7.50061 19.93C6.72964 19.1681 5.96163 18.4033 5.19573 17.6363C4.91529 17.3565 4.6338 17.0777 4.35116 16.8001C2.06184 14.5497 0.397529 12.4278 0.28573 9.10769C0.324768 6.65316 1.26638 4.39787 2.98837 2.63674C6.47401 -0.200412 11.0611 -0.374139 14.5899 2.46096Z" fill="white"/>
  </g>
  <defs>
    <clipPath id="clip0_39_58">
      <rect width="90" height="90" fill="white"/>
    </clipPath>
  </defs>
</svg>
