<svg width="512" height="512" viewBox="0 0 512 512" fill="inherit"
  xmlns="http://www.w3.org/2000/svg">
  <path d="M483 136C484.301 137.013 484.301 137.013 485.629 138.047C492.772 144.023 500.979 152.647 503 162C501.744 162.17 500.489 162.34 499.195 162.516C486.181 164.296 486.181 164.296 474 169C473.163 169.42 472.327 169.84 471.465 170.273C459.895 176.591 453.162 186.515 449.035 198.895C447.449 204.537 446.264 210.278 445 216C444.448 216.14 443.895 216.28 443.326 216.424C425.293 221.07 410.464 227.124 396 239C395.297 239.539 394.595 240.078 393.871 240.633C372.619 257.721 361.997 286.314 356 312C354.805 311.84 353.61 311.68 352.379 311.516C321.916 308.159 292.662 312.217 268.125 331.438C263.684 335.178 260.147 339.126 257 344C257.424 344.692 257.848 345.384 258.285 346.098C274.292 373.189 275.444 403.831 276.287 434.617C276.558 443.683 277.026 451.677 281 460C281.496 461.084 281.993 462.168 282.504 463.285C288.827 476.064 298.195 485.059 311.75 489.812C330.031 495.569 352.25 493.256 369.125 484.562C375.97 480.581 380.776 477.479 384 470C384.6 466.756 384.6 466.756 384.875 463.375C387.074 446.661 396.132 436.283 409 426C409.33 426 409.66 426 410 426C410.435 442.771 408.043 457.054 396.125 469.625C389.038 476.244 381.044 481.622 373 487C371.973 487.705 370.945 488.41 369.887 489.137C356.901 497.8 344.291 501.394 328.812 501.312C327.705 501.308 326.598 501.303 325.458 501.298C317.246 501.18 309.874 500.47 302 498C300.921 497.694 299.842 497.389 298.73 497.074C278.69 490.537 264.766 470.997 255.351 453.066C247.453 437.424 240.405 421.765 242.766 403.992C242.843 403.005 242.92 402.017 243 401C242.34 400.34 241.68 399.68 241 399C238.892 399.319 238.892 399.319 237 400C235.501 404.901 234.466 409.719 233.746 414.797C233.64 415.512 233.534 416.228 233.425 416.965C233.092 419.226 232.764 421.488 232.437 423.75C232.106 426.026 231.774 428.302 231.439 430.578C231.231 431.988 231.026 433.398 230.824 434.808C230.406 437.661 229.915 440.256 229 443C227.793 443.026 226.587 443.052 225.344 443.078C223.729 443.134 222.114 443.192 220.5 443.25C219.708 443.264 218.917 443.278 218.101 443.293C211.766 443.553 206.188 444.984 201.471 449.446C199.198 452.07 197.353 454.803 196 458C194.68 457.67 193.36 457.34 192 457C191.918 454.938 191.861 452.875 191.812 450.812C191.778 449.664 191.743 448.515 191.707 447.332C192.029 443.667 192.788 441.903 195 439C199.115 436.256 203.474 435.98 208.283 435.32C212.433 434.73 212.433 434.73 215.527 432.133C216.511 427.694 214.958 423.777 212.875 419.914C210.055 415.732 207.23 413.369 202.812 410.938C199.272 408.966 198.118 408.193 195.937 404.625C194.933 400.741 194.244 396.996 194 393C193.921 391.846 193.921 391.846 193.84 390.668C193.622 384.965 194.566 381.877 198.306 377.456C201.677 374.558 206.379 374.19 210.625 373.25C211.585 373.017 212.546 372.783 213.535 372.543C219.47 371.198 225.054 370.258 231 372C233.855 373.891 233.855 373.891 236.187 376.25C237.435 377.46 237.435 377.46 238.707 378.695C239.464 379.456 240.22 380.216 241 381C242.957 382.869 244.788 384.42 247 386C249.322 385.966 249.322 385.966 251 385C251.554 382.784 251.554 382.784 251 380C249.094 377.485 246.792 375.465 244.437 373.375C243.828 372.803 243.219 372.23 242.592 371.641C236.313 365.927 230.763 363.489 222.184 363.691C217.124 364.182 212.228 365.291 207.285 366.441C199.881 367.7 195.038 362.891 189.187 358.875C188.215 358.223 187.242 357.57 186.24 356.898C169.156 345.239 158.334 327.268 154 307C154 306.01 154 305.02 154 304C157.385 305.064 159.011 306.012 161.5 308.625C163.771 311.261 163.771 311.261 166.812 311.312C167.534 311.209 168.256 311.106 169 311C169.592 308.801 169.592 308.801 169 306C159.768 292.371 138.777 284.543 123.536 281.129C109.836 278.532 94.502 278.458 80.9999 282C80.5049 284.97 80.5049 284.97 79.9999 288C83.6299 288 87.2599 288 90.9999 288C87.3881 297.029 81.6913 301.732 72.9999 306C72.3399 306 71.6799 306 70.9999 306C70.7731 306.681 70.5462 307.361 70.3124 308.062C69.8793 309.032 69.4462 310.001 68.9999 311C68.7279 311.636 68.4559 312.271 68.1757 312.926C66.9632 315.175 66.0863 316.5 63.9999 318C59.8742 318.359 56.0359 317.891 51.9999 317C49.8988 314.899 50.8289 310.488 50.8093 307.684C50.8332 281.276 51.788 250.143 69.9999 229C71.9487 227.256 73.9537 225.632 75.9999 224C77.237 238.965 77.237 238.965 74.3945 243.641C72.9902 245.021 71.5609 246.376 70.1093 247.707C63.8537 254.507 61.7653 265.949 61.9999 275C62.3299 275.66 62.6599 276.32 62.9999 277C64.6499 277 66.2999 277 67.9999 277C68.1643 276.091 68.1643 276.091 68.332 275.164C72.4501 253.401 72.4501 253.401 81.0273 246.328C84.7317 243.872 86.4168 243 90.9999 243C89.1745 249.708 86.8212 255.931 83.8905 262.238C82.8998 265.311 83.0873 266.945 83.9999 270C86.3875 270.052 86.3875 270.052 88.9999 269C90.527 266.61 91.6781 264.499 92.8124 261.938C93.1237 261.274 93.435 260.611 93.7558 259.928C94.5203 258.293 95.2624 256.647 95.9999 255C119.367 252.982 146.564 262.394 166.687 273.625C172.922 277.013 177.506 277.454 184.527 276.508C190.474 275.711 196.449 275.855 202.437 275.875C203.552 275.871 204.666 275.867 205.814 275.863C211.648 275.87 217.229 276.165 223 277C227.835 277.418 231.706 277.583 236.187 275.562C243.194 269.179 247.594 261.414 251.875 253.062C256.151 245.007 260.431 238.383 267 232C269.356 229.542 271.678 227.053 274 224.562C274.91 223.592 274.91 223.592 275.838 222.603C280.044 218.097 284.031 213.468 287.875 208.648C290.111 205.861 292.428 203.154 294.75 200.438C315.161 175.919 333.158 148.197 341 117C344.395 116.514 347.791 116.038 351.187 115.563C352.128 115.428 353.068 115.293 354.037 115.154C394.991 109.462 448.844 109.086 483 136ZM352 126C349.098 129.658 348.191 133.578 347.125 138.063C340.705 163.415 325.162 185.838 309 206C308.498 206.631 307.997 207.263 307.48 207.914C301.056 215.996 294.471 223.839 287.43 231.391C284.767 234.25 282.182 237.162 279.641 240.129C278.456 241.48 277.232 242.797 275.984 244.09C275.329 244.782 274.675 245.474 274 246.188C273.402 246.8 272.804 247.412 272.187 248.043C270.718 250.014 270.718 250.014 271.312 252.738C271.539 253.485 271.766 254.231 272 255C274.277 255.858 274.277 255.858 277 256C279.335 254.433 279.335 254.433 281.375 252.062C282.157 251.226 282.94 250.389 283.746 249.527C284.49 248.693 285.234 247.859 286 247C286.589 246.341 287.178 245.683 287.785 245.004C288.908 243.727 290.022 242.443 291.129 241.152C293.331 238.619 295.602 236.157 297.875 233.688C302.792 228.283 307.457 222.721 312 217C312.79 216.011 312.79 216.011 313.595 215.002C321.575 204.985 329.207 194.864 336 184C336.423 183.326 336.845 182.652 337.281 181.958C346.809 166.626 359.002 146.647 358 128C357.01 127.01 357.01 127.01 356 126C354.68 126 353.36 126 352 126ZM362 150C361.927 152.555 361.927 152.555 363 155C366.625 156.767 370.415 157.645 374.312 158.625C394.722 164.392 410.852 176.212 421.326 194.798C423.672 199.124 425.483 203.504 426.918 208.207C427.899 210.26 427.899 210.26 430.488 210.887C431.732 210.943 431.732 210.943 433 211C435.252 209.153 435.252 209.153 435.348 206.359C434.905 202.078 433.423 199.024 431.437 195.25C431.075 194.546 430.713 193.843 430.34 193.117C427.339 187.4 423.967 182.102 420 177C419.567 176.403 419.134 175.806 418.687 175.191C407.668 160.991 388.407 151.246 371 148C365.944 147.427 365.944 147.427 362 150ZM340 206C340.526 211.665 342.428 217.04 344.062 222.465C349.616 243.407 347.053 269.371 340.844 289.98C339.958 293.152 340.056 294.884 341 298C342.65 298.33 344.3 298.66 346 299C348.251 296.26 349.486 294.056 350.316 290.613C350.522 289.766 350.728 288.919 350.941 288.046C351.146 287.144 351.351 286.242 351.562 285.312C351.779 284.374 351.995 283.436 352.217 282.469C357.922 256.877 358.65 229.441 348 205C346.947 203.73 346.947 203.73 344.562 203.812C341.833 203.732 341.833 203.732 340 206ZM57.1874 291.188C55.7248 293.008 55.7248 293.008 56.2499 295.625C56.7774 297.931 56.7774 297.931 57.9999 299C60.9999 299.167 60.9999 299.167 63.9999 299C65.3318 297.888 65.3318 297.888 65.1874 295.062C65.3327 291.891 65.3327 291.891 62.9999 290C59.1964 289.635 59.1964 289.635 57.1874 291.188Z" fill="black"/>
  <path d="M61.0001 11C60.9653 12.0158 60.9305 13.0316 60.8946 14.0781C60.5304 29.2329 63.0592 42.4165 73.2501 54.1875C91.4973 73.3306 116.998 79.4612 142 85C141.977 85.8959 141.977 85.8959 141.952 86.8098C141.086 125.044 151.324 157.871 178.016 186.027C183.766 191.892 190.167 197.444 197 202C195.837 205.914 194.312 209.51 192.563 213.188C184.229 231.281 184.911 249.097 190 268C181.002 269.846 174.513 269.443 166.375 265.188C164.946 264.472 163.516 263.757 162.086 263.043C161.062 262.512 161.062 262.512 160.018 261.971C158.079 261.038 156.15 260.36 154.117 259.664C151 258 151 258 149.609 255.043C149.184 253.135 149.184 253.135 148.75 251.188C146.536 242.275 143.489 233.728 140.313 225.125C139.819 223.774 139.326 222.422 138.833 221.071C138.365 219.8 137.896 218.529 137.426 217.258C137.007 216.125 136.589 214.992 136.158 213.825C135.054 210.867 135.054 210.867 133 208C131.35 208.33 129.7 208.66 128 209C128.563 213.783 129.535 218.004 131.18 222.527C131.614 223.732 132.049 224.937 132.496 226.178C132.956 227.431 133.415 228.684 133.875 229.938C134.322 231.174 134.77 232.411 135.231 233.686C137.053 238.715 138.888 243.727 140.883 248.691C142 252 142 252 141 255C137.706 254.312 135.749 253.832 133 252C130.762 248.362 129.567 244.422 128.25 240.375C127.406 238 126.553 235.627 125.691 233.258C125.253 232.048 124.815 230.838 124.364 229.591C114.096 202.557 98.4811 177.171 80.0001 155C79.5488 154.458 79.0974 153.917 78.6324 153.359C69.2357 142.127 59.5216 132.103 48.0001 123C46.5538 121.811 46.5538 121.811 45.0782 120.598C37.2726 114.327 29.0005 109.264 20.2852 104.348C19.5519 103.933 18.8186 103.518 18.0631 103.09C15.8071 101.849 15.8071 101.849 12.4962 100.621C10.0001 99 10.0001 99 9.14071 95.9727C9.09431 94.6617 9.0479 93.3507 9.00009 92C8.96464 91.2071 8.92919 90.4141 8.89267 89.5972C8.05593 66.856 11.7918 48.1472 27.129 30.5586C34.9541 22.2855 49.1381 11 61.0001 11ZM40.9845 48.75C33.6114 57.11 30.8173 67.3387 30.7501 78.1875C30.7295 79.0003 30.7088 79.813 30.6876 80.6504C30.6515 86.3135 31.1403 91.9886 34.0001 97C36.0203 98.2733 36.0203 98.2733 38.0001 99C39.3201 98.01 40.6401 97.02 42.0001 96C41.8557 95.3568 41.7113 94.7135 41.5626 94.0508C39.0709 81.9212 38.2999 69.7326 44.9376 58.8125C45.6182 57.8844 46.2988 56.9563 47.0001 56C48.3785 53.6901 49.6856 51.3473 51.0001 49C49.6881 47.6457 48.3538 46.3127 47.0001 45C44.5796 45 42.7235 47.2553 40.9845 48.75ZM57.0001 92C56.7498 94.5838 56.7498 94.5838 57.0001 97C61.111 99.3124 63.3613 98.6878 67.7701 97.5024C84.9961 93.6212 102.859 99.4193 118.707 105.73C122.283 107.143 122.283 107.143 126 108C127.917 106.917 127.917 106.917 129 105C129.223 102.963 129.223 102.963 128 101C123.556 97.6347 119.133 95.711 113.875 93.9375C113.129 93.6807 112.383 93.424 111.614 93.1594C95.4525 87.6949 72.4871 81.6753 57.0001 92Z" fill="black"/>
  <path d="M484.812 247.188C486.441 249.672 486.51 251.087 486 254C482.767 257.17 479.633 257.621 475.25 258.313C459.91 261.084 446.308 267.23 434.305 277.25C431.35 279.494 429.626 279.484 426 279C424 277 424 277 423.375 274.313C424.375 269.01 427.724 267.027 432 264C442.437 256.951 472.143 238.887 484.812 247.188Z" fill="black"/>
  <path d="M238 436C238.66 436 239.32 436 240 436C240.401 437.042 240.802 438.083 241.215 439.156C249.934 461.34 261.81 478.538 279 495C277 496 277 496 274.602 495.285C254.852 487.173 238.76 473.113 229 454C229 453.34 229 452.68 229 452C232.465 451.505 232.465 451.505 236 451C236.66 446.05 237.32 441.1 238 436Z" fill="black"/>
  <path d="M183 365C186.983 365.443 189.797 367.743 193 370C192.013 371.991 191.015 373.971 189.965 375.93C189.626 376.572 189.287 377.214 188.937 377.875C188.596 378.512 188.254 379.149 187.902 379.805C184.554 387.951 186.273 398.406 188.816 406.645C191.481 412.476 195.928 415.619 201.187 419.125C205.658 422.105 205.658 422.105 207 424C206.687 426.188 206.687 426.188 206 428C203.75 428.375 203.75 428.375 201 428C199.616 426.035 198.288 424.03 197 422C193.542 419.105 191.128 417.972 186.75 417.562C181.858 416.654 179.394 413.628 176.437 409.875C175.775 409.058 175.775 409.058 175.099 408.225C172.579 404.797 171.272 401.865 171.536 397.477C172.658 391.487 174.878 385.781 176.937 380.062C177.412 378.711 177.885 377.358 178.357 376.006C181.816 366.184 181.816 366.184 183 365Z" fill="black"/>
  <path d="M199.598 153.465C204.837 154.289 207.068 157.672 210.437 161.562C211.706 162.981 212.975 164.399 214.246 165.816C215.185 166.87 215.185 166.87 216.144 167.944C221.888 174.306 227.821 179.25 235.01 183.904C236.855 185.178 238.476 186.354 240 188C240.566 191.215 240.566 191.215 240 194C238 196 238 196 235.156 196.297C223.279 195.18 208.222 177.87 200.781 169.18C200.193 168.46 199.606 167.741 199 167C198.515 166.425 198.031 165.85 197.531 165.258C195.432 162.52 194.99 161.179 195.187 157.688C196.256 154.153 196.256 154.153 199.598 153.465Z" fill="black"/>
  <path d="M395 316C397.34 316.287 399.674 316.619 402 317C403.305 322.961 402.494 327.107 400.688 332.875C400.231 334.393 399.776 335.911 399.324 337.43C399.1 338.176 398.875 338.922 398.643 339.691C397.775 342.81 397.13 345.961 396.514 349.138C396 351 396 351 394.25 353.188C391.002 354.361 389.085 353.332 386 352C385.753 345.334 386.511 339.778 388.313 333.375C388.526 332.568 388.739 331.761 388.959 330.93C392.279 318.721 392.279 318.721 395 316Z" fill="black"/>
  <path d="M181.562 109.313C185.061 111.734 185.642 115.138 187 119C187.529 120.348 188.064 121.693 188.605 123.035C189.133 124.378 189.66 125.72 190.187 127.063C190.46 127.731 190.733 128.399 191.014 129.088C192.731 133.518 193.464 137.173 193 142C191 144 191 144 187.578 144.027C184 143 184 143 182.109 140.191C181.661 138.994 181.212 137.796 180.75 136.563C180.507 135.93 180.265 135.298 180.015 134.646C179.311 132.776 178.654 130.888 178 129C177.657 128.041 177.314 127.082 176.961 126.094C175.397 121.359 174.283 117.02 175 112C177.186 109.328 178.132 108.894 181.562 109.313Z" fill="black"/>
  <path d="M177.938 65.8125C181 66 181 66 183 68C183.582 73.9432 183.243 80.1601 182 86C180 88 180 88 177 88.25C174 88 174 88 172 86C171.734 83.1719 171.734 83.1719 171.75 79.75C171.745 78.6311 171.74 77.5122 171.734 76.3594C172.541 66.157 172.541 66.157 177.938 65.8125Z" fill="black"/>
  <path d="M417.125 283.938C418.074 284.288 419.022 284.639 420 285C421.02 288.198 421.196 289.571 419.777 292.676C419.17 293.546 418.563 294.416 417.937 295.313C417.348 296.196 416.759 297.079 416.152 297.988C414 300 414 300 410.879 300.418C408 300 408 300 406 298C405.378 294.736 405.562 292.734 407.273 289.863C412.628 282.589 412.628 282.589 417.125 283.938Z" fill="black"/>
  <path d="M219 452C221.657 455.14 223.113 457.97 224 462C223.125 465.375 223.125 465.375 222 468C220.68 467.34 219.36 466.68 218 466C217.973 464.229 217.954 462.458 217.938 460.688C217.926 459.701 217.914 458.715 217.902 457.699C218 455 218 455 219 452Z" fill="black"/>
</svg>
