<svg width="90" height="90" viewBox="0 0 90 90" fill="none"
  xmlns="http://www.w3.org/2000/svg">
  <g clip-path="url(#clip0_44_7)">
    <path d="M15.9959 15.8203C16.387 16.1241 16.732 16.461 17.0789 16.8138C17.2289 16.9621 17.2289 16.9621 17.3819 17.1134C17.7153 17.4439 18.0461 17.7768 18.377 18.1098C18.6184 18.3501 18.86 18.5903 19.1017 18.8304C19.7645 19.4895 20.425 20.1509 21.0853 20.8126C21.798 21.5262 22.5128 22.2379 23.2273 22.9497C24.6263 24.3443 26.0234 25.7407 27.4198 27.1379C28.5546 28.2734 29.6901 29.4082 30.826 30.5426C30.9876 30.704 31.1492 30.8654 31.3157 31.0317C31.6441 31.3597 31.9724 31.6876 32.3007 32.0155C34.5052 34.2172 36.709 36.4196 38.9114 38.6234C38.9975 38.7096 39.0836 38.7958 39.1723 38.8845C39.6087 39.3212 40.0451 39.7578 40.4814 40.1945C40.5681 40.2812 40.6547 40.3679 40.744 40.4573C40.9193 40.6327 41.0945 40.808 41.2698 40.9834C43.9973 43.7128 46.7272 46.4399 49.4589 49.1652C52.5287 52.2277 55.5968 55.292 58.6623 58.3588C60.2852 59.9824 61.9088 61.6052 63.5346 63.226C64.9183 64.6056 66.3003 65.987 67.6798 67.3708C68.3838 68.0769 69.0886 68.7821 69.7958 69.485C70.443 70.1285 71.0878 70.7743 71.7307 71.4221C71.9637 71.6561 72.1976 71.8892 72.4325 72.1212C74.8651 74.5267 74.8651 74.5267 74.8887 76.1923C74.844 77.2215 74.4892 77.9295 73.7414 78.6518C72.9734 79.3224 72.411 79.4839 71.4109 79.5081C71.2342 79.5146 71.0575 79.5212 70.8754 79.528C69.3889 79.3304 68.4851 78.2035 67.5026 77.1674C67.244 76.8954 66.983 76.6258 66.7213 76.3568C65.9779 75.5926 65.2364 74.8268 64.5023 74.0536C64.0515 73.579 63.596 73.1093 63.1372 72.6425C62.964 72.4644 62.7926 72.2845 62.623 72.1029C61.7484 71.0863 61.7484 71.0863 60.5591 70.6292C60.1474 70.7172 59.7974 70.8439 59.4139 71.0156C59.2524 71.0571 59.0909 71.0985 58.9245 71.1412C58.788 71.1791 58.6515 71.2169 58.5109 71.256C45.214 74.8793 31.6975 72.9949 19.7079 66.2634C18.4852 65.5629 17.3179 64.8031 16.1717 63.9844C15.9771 63.8464 15.9771 63.8464 15.7785 63.7057C13.8256 62.3154 11.9667 60.8532 10.1951 59.2383C10.0137 59.0732 10.0137 59.0732 9.82871 58.9047C9.45137 58.5597 9.07576 58.2128 8.70098 57.865C8.5873 57.7599 8.47362 57.6547 8.35649 57.5464C7.66974 56.9013 7.03816 56.227 6.42457 55.512C6.10192 55.1369 5.7647 54.7769 5.42705 54.4153C3.68895 52.4874 2.10355 50.3495 0.702929 48.1641C0.619543 48.0363 0.536157 47.9085 0.450244 47.7768C-0.298743 46.4141 -0.203784 44.582 0.103488 43.0904C0.569008 41.7797 1.4627 40.6587 2.28496 39.5508C2.42137 39.3657 2.55778 39.1805 2.69832 38.9898C4.2352 36.9498 5.8911 34.993 7.73418 33.2227C8.1906 32.7693 8.64327 32.3128 9.09236 31.8521C10.804 30.1016 12.6809 28.618 14.6337 27.1455C14.7569 27.0523 14.8802 26.959 15.0071 26.8629C15.1173 26.78 15.2274 26.6971 15.3408 26.6117C15.6395 26.3711 15.9027 26.1128 16.1717 25.8398C16.0147 25.6875 15.8577 25.5351 15.696 25.3781C15.1109 24.809 14.5288 24.237 13.9476 23.664C13.6962 23.4171 13.4441 23.1709 13.1911 22.9255C12.8264 22.5716 12.4646 22.2148 12.1033 21.8573C11.9907 21.7492 11.878 21.6411 11.762 21.5297C10.9275 20.6957 10.4287 19.8923 10.3331 18.6816C10.4656 17.5639 10.671 16.6901 11.5451 15.9075C13.0109 14.8035 14.4707 14.8909 15.9959 15.8203ZM27.7732 37.4414C25.8072 41.4437 25.576 46.396 26.939 50.6257C28.0266 53.7997 29.7785 56.85 32.3436 59.0625C32.4972 59.1951 32.6508 59.3276 32.8091 59.4642C35.1388 61.3952 37.851 62.7285 40.7811 63.457C40.9444 63.4999 41.1078 63.5427 41.2761 63.5868C45.0037 64.3844 48.8889 63.7835 52.3826 62.4023C52.3826 61.1207 50.5021 59.6833 49.6368 58.7991C48.4813 57.667 47.5678 56.8566 45.8734 56.8324C45.1505 56.8895 44.4356 56.9726 43.7184 57.0796C41.4579 57.3137 38.9195 55.9444 37.2023 54.5602C35.0081 52.6841 33.3091 50.03 32.884 47.1318C32.868 46.6748 32.9377 46.2605 33.013 45.8096C33.2952 43.8513 33.2952 43.8513 32.6561 42.0271C31.3383 40.2992 29.6328 38.8051 27.949 37.4414C27.891 37.4414 27.833 37.4414 27.7732 37.4414Z" fill="black"/>
    <path d="M56.9531 18.2813C57.1079 18.319 57.2626 18.3568 57.422 18.3958C66.0617 20.5585 74.4939 25.3842 80.759 31.718C81.0718 32.0286 81.3991 32.315 81.7383 32.5964C82.328 33.106 82.8367 33.6478 83.3395 34.2423C83.7094 34.6725 84.0968 35.0831 84.4849 35.4968C85.6521 36.7778 86.6861 38.1577 87.7148 39.5508C87.7955 39.6594 87.8762 39.7679 87.9593 39.8798C89.542 42.0244 90.2602 43.7249 90 46.4063C89.6742 47.949 88.6373 49.2063 87.7148 50.4492C87.5102 50.7269 87.5102 50.7269 87.3015 51.0102C86.4972 52.0778 85.6546 53.1066 84.7815 54.1187C84.6897 54.2252 84.5978 54.3318 84.5032 54.4416C83.9288 55.0996 83.33 55.7235 82.7048 56.3335C82.4148 56.6182 82.4148 56.6182 82.1008 57.041C81.6934 57.5349 81.2471 57.9226 80.7605 58.3367C80.3531 58.6926 79.9608 59.0614 79.5689 59.4342C78.1521 60.7749 76.6222 61.9426 75.0586 63.1055C74.7941 63.3036 74.5298 63.5018 74.2655 63.7001C74.148 63.7883 74.0305 63.8765 73.9094 63.9673C73.8245 64.0309 73.7397 64.0946 73.6523 64.1602C72.9237 63.8716 72.428 63.3431 71.8823 62.8011C71.7773 62.6982 71.6724 62.5952 71.5642 62.4892C71.2181 62.149 70.8733 61.8076 70.5288 61.4658C70.352 61.2908 70.352 61.2908 70.1716 61.1123C69.5485 60.4954 68.9265 59.8776 68.3053 59.2588C67.6629 58.6193 67.0168 57.9835 66.3699 57.3485C65.8734 56.8599 65.3796 56.3685 64.8866 55.8764C64.6495 55.6407 64.4114 55.4061 64.1723 55.1725C63.8385 54.846 63.5088 54.5158 63.1798 54.1844C63.08 54.0885 62.9802 53.9926 62.8774 53.8937C62.6078 53.6175 62.6078 53.6175 62.2266 53.0859C62.2426 52.5302 62.2426 52.5302 62.4023 52.0313C62.4674 51.8187 62.5324 51.6062 62.5994 51.3872C62.6765 51.1551 62.7536 50.923 62.8308 50.6909C64.4033 45.7263 63.7364 40.8176 61.5564 36.167C60.9654 35.0312 60.2204 34.038 59.4141 33.0469C59.2931 32.8966 59.1721 32.7464 59.0474 32.5916C56.1164 29.1431 51.6362 26.7478 47.1094 26.3672C43.9356 26.1706 40.9556 26.3876 38.0148 27.6615C37.5073 27.8044 37.2431 27.7498 36.7383 27.5977C36.339 27.2853 36.339 27.2853 35.9285 26.8733C35.7737 26.7196 35.6189 26.5659 35.4595 26.4075C35.2931 26.2387 35.1268 26.0699 34.9606 25.901C34.7885 25.7285 34.6164 25.5562 34.4441 25.384C34.0841 25.0235 33.7254 24.6618 33.3675 24.2992C32.908 23.8338 32.4463 23.3707 31.9837 22.9084C31.6285 22.553 31.2742 22.1968 30.9202 21.8403C30.7501 21.6691 30.5799 21.4982 30.4094 21.3275C30.172 21.0893 29.936 20.8499 29.7 20.6104C29.5652 20.4743 29.4305 20.3382 29.2916 20.198C29.0039 19.8633 29.0039 19.8633 29.0039 19.5117C38.0936 16.5258 47.6299 15.9862 56.9531 18.2813Z" fill="black"/>
    <path d="M52.207 34.8047C54.7663 36.7195 56.57 39.4422 57.2237 42.5837C57.4222 44.1975 57.5326 46.048 57.1289 47.6367C56.5925 47.3969 56.2222 47.1257 55.8074 46.7114C55.6284 46.5339 55.6284 46.5339 55.4459 46.3529C55.3169 46.2232 55.1879 46.0935 55.0551 45.9599C54.9178 45.8233 54.7805 45.6866 54.6391 45.5458C54.1855 45.0938 53.7332 44.6404 53.2809 44.187C52.9667 43.873 52.6524 43.5591 52.3381 43.2452C51.6797 42.5873 51.0219 41.9288 50.3646 41.2698C49.604 40.5073 48.8421 39.746 48.0796 38.9854C47.3463 38.2539 46.6141 37.5215 45.8822 36.7886C45.5704 36.4766 45.2584 36.1649 44.9461 35.8534C44.5109 35.4191 44.0768 34.9836 43.643 34.5479C43.5126 34.4182 43.3822 34.2885 43.2479 34.1549C43.1306 34.0366 43.0133 33.9183 42.8924 33.7964C42.7896 33.6935 42.6868 33.5906 42.5809 33.4845C42.3633 33.2226 42.3633 33.2226 42.3633 32.8711C45.6996 32.0353 49.4078 32.8931 52.207 34.8047Z" fill="black"/>
  </g>
  <defs>
    <clipPath id="clip0_44_7">
      <rect width="90" height="90" fill="white"/>
    </clipPath>
  </defs>
</svg>
