<svg width="90" height="90" viewBox="0 0 90 90" fill="none"
  xmlns="http://www.w3.org/2000/svg">
  <g clip-path="url(#clip0_44_11)">
    <path d="M44.8351 18.0615C44.9656 18.0613 45.0961 18.0612 45.2305 18.061C58.7303 18.0733 71.8258 24.1812 81.3207 33.6621C81.5776 33.9253 81.834 34.1889 82.0898 34.4531C82.5559 34.9223 83.0254 35.3879 83.4988 35.8498C84.5436 36.8737 85.5316 37.9071 86.4404 39.0564C86.8072 39.5149 87.1861 39.9582 87.5717 40.4008C90.1395 43.3703 90.1395 43.3703 90.129 45.6228C89.8495 46.9385 88.8965 47.9619 88.0554 48.9771C87.9563 49.0976 87.8572 49.2182 87.7551 49.3424C87.45 49.7124 87.1433 50.0811 86.8359 50.4492C86.7415 50.5624 86.6472 50.6756 86.55 50.7923C85.5693 51.9648 84.5729 53.0952 83.4754 54.1612C83.1927 54.4439 82.9416 54.7284 82.694 55.0415C82.2393 55.5779 81.7498 56.0104 81.2157 56.4649C80.8856 56.7543 80.5814 57.0546 80.277 57.3706C79.4759 58.1825 78.5839 58.8771 77.6953 59.5898C77.5014 59.7507 77.3078 59.9119 77.1144 60.0732C69.3794 66.473 59.8822 70.561 49.9218 71.7188C49.7674 71.7369 49.6129 71.755 49.4538 71.7737C48.0269 71.9227 46.598 71.9371 45.1647 71.9385C45.0343 71.9387 44.9038 71.9388 44.7693 71.939C31.2696 71.9267 18.1741 65.8188 8.67914 56.3379C8.42228 56.0747 8.16591 55.8111 7.9101 55.5469C7.44393 55.0777 6.9745 54.6121 6.5011 54.1502C5.45632 53.1263 4.46828 52.0929 3.55951 50.9436C3.19268 50.4851 2.81379 50.0418 2.42822 49.5992C-0.139638 46.6297 -0.139638 46.6297 -0.129149 44.3772C0.150337 43.0616 1.10341 42.0381 1.94452 41.023C2.0436 40.9024 2.14268 40.7818 2.24476 40.6576C2.5499 40.2876 2.85661 39.9189 3.164 39.5508C3.25835 39.4376 3.3527 39.3244 3.44991 39.2077C4.43057 38.0352 5.42695 36.9048 6.52445 35.8388C6.80717 35.5561 7.05832 35.2716 7.30585 34.9585C7.76058 34.4222 8.25008 33.9896 8.7842 33.5351C9.11426 33.2457 9.41852 32.9454 9.72284 32.6294C10.5239 31.8175 11.416 31.1229 12.3046 30.4102C12.4985 30.2493 12.6921 30.0881 12.8855 29.9268C20.6205 23.527 30.1177 19.439 40.0781 18.2813C40.3097 18.2541 40.3097 18.2541 40.5461 18.2263C41.973 18.0773 43.4018 18.0629 44.8351 18.0615ZM30.8803 32.4297C27.4393 36.499 25.8114 41.4419 26.1913 46.7578C26.5316 50.5744 28.0442 54.2496 30.5859 57.1289C30.7107 57.2769 30.8356 57.4248 30.9642 57.5773C34.0237 61.1207 38.579 63.3964 43.2421 63.8086C48.4828 64.1322 53.0147 62.6904 57.1288 59.4141C57.2576 59.3128 57.3863 59.2115 57.5189 59.1071C61.0849 56.1567 63.2929 51.4769 63.8085 46.9336C64.0971 41.7714 62.8969 36.8167 59.414 32.8711C59.2892 32.7231 59.1643 32.5752 59.0357 32.4227C55.9762 28.8793 51.4209 26.6036 46.7578 26.1914C40.7652 25.8214 34.9435 27.8649 30.8803 32.4297Z" fill="black"/>
    <path d="M44.9672 34.7278C45.1362 34.729 45.3052 34.7302 45.4793 34.7314C47.4553 34.7758 49.1418 35.2929 50.801 36.3867C50.9306 36.471 51.0602 36.5553 51.1937 36.6421C53.2982 38.137 54.7417 40.5325 55.1955 43.0664C55.4976 46.1956 55.0559 48.9639 53.0861 51.5039C51.3844 53.5493 49.0212 54.984 46.3461 55.2338C43.2693 55.4263 40.5718 54.8591 38.1543 52.8264C36.0172 50.8057 34.8274 48.3983 34.7222 45.4565C34.6868 42.3415 35.6002 39.9478 37.743 37.6618C39.715 35.7168 42.2053 34.6973 44.9672 34.7278Z" fill="black"/>
  </g>
  <defs>
    <clipPath id="clip0_44_11">
      <rect width="90" height="90" fill="white"/>
    </clipPath>
  </defs>
</svg>
