<svg width="90" height="90" viewBox="0 0 90 90" fill="none"
  xmlns="http://www.w3.org/2000/svg">
  <g clip-path="url(#clip0_16_3)">
    <path d="M50.449 2.36259e-06C50.4092 0.176773 50.3694 0.353544 50.3283 0.535672C49.2184 5.4178 49.2184 5.4178 48.5155 10.3711C48.4994 10.5293 48.4833 10.6874 48.4668 10.8504C47.867 17.2742 48.2677 24.5821 52.3826 29.8828C52.7928 30.3516 52.7928 30.3516 53.2615 30.7617C53.3624 30.8592 53.4632 30.9566 53.5671 31.057C55.4095 32.7775 57.3955 33.333 59.8561 33.2769C60.8614 33.2264 61.6861 32.9864 62.5779 32.5195C62.7338 32.4382 62.8897 32.3568 63.0504 32.273C66.0245 30.5451 67.6369 27.8229 69.0819 24.7852C69.7635 25.4269 70.294 26.0908 70.8067 26.8726C70.9207 27.0462 70.9207 27.0462 71.037 27.2234C75.1324 33.5557 76.7719 41.2725 75.2342 48.6914C74.6622 51.2271 73.7585 53.5763 72.5975 55.8984C75.3435 56.0539 77.6843 54.6953 79.7255 52.961C80.2455 52.475 80.7076 51.9605 81.151 51.4043C81.2676 51.2796 81.2676 51.2796 81.3865 51.1523C81.5026 51.1523 81.6186 51.1523 81.7381 51.1523C81.9102 59.4576 80.2477 67.5297 75.2342 74.3555C75.1535 74.4671 75.0728 74.5788 74.9897 74.6938C74.7178 75.0695 74.4437 75.4434 74.1685 75.8167C74.0837 75.9324 73.9988 76.0482 73.9114 76.1675C73.3779 76.8788 72.8049 77.5097 72.1678 78.1296C71.8616 78.4307 71.5852 78.7484 71.3121 79.0796C68.8773 81.8774 65.6664 84.0722 62.4022 85.7812C62.2442 85.864 62.0862 85.9467 61.9234 86.032C57.3678 88.3825 52.259 89.9928 47.0934 90.0419C46.9434 90.0436 46.7933 90.0453 46.6388 90.0471C41.9531 90.0898 37.7026 89.7107 33.2225 88.2422C33.1006 88.2028 32.9788 88.1635 32.8532 88.123C29.0886 86.8832 25.6597 84.8847 22.5108 82.5073C22.388 82.4148 22.2653 82.3223 22.1388 82.2269C21.4169 81.6707 20.7653 81.0798 20.1297 80.427C19.8293 80.1219 19.5122 79.8462 19.182 79.574C17.6112 78.2116 16.3389 76.5557 15.117 74.8828C15.0471 74.7876 14.9771 74.6924 14.905 74.5943C9.3312 66.9092 7.12885 57.0166 8.56294 47.6589C8.77194 46.4128 9.02065 45.1738 9.31623 43.9453C9.49026 43.9453 9.66428 43.9453 9.84358 43.9453C10.1409 44.2619 10.1409 44.2619 10.4698 44.7034C11.6518 46.2346 12.9234 47.6336 14.4139 48.8672C14.5709 49.0025 14.7279 49.1377 14.8897 49.2771C16.3626 50.5338 17.9022 51.6446 19.5467 52.6696C19.7349 52.787 19.7349 52.787 19.9268 52.9067C20.0218 52.9658 20.1168 53.025 20.2147 53.0859C20.2129 52.8987 20.2129 52.8987 20.2111 52.7077C20.2003 51.5039 20.1924 50.3001 20.1873 49.0962C20.1846 48.478 20.181 47.8598 20.1749 47.2416C20.1327 42.872 20.3855 38.5704 21.1375 34.2554C21.1745 34.0406 21.2115 33.8258 21.2497 33.6045C22.5968 26.0645 25.1941 18.7772 29.8826 12.6563C29.9921 12.5128 30.1015 12.3694 30.2143 12.2216C31.5388 10.5264 32.9703 8.93249 34.6287 7.5586C34.8456 7.3652 34.8456 7.3652 35.0668 7.16789C38.7641 3.93665 45.3604 -0.0955181 50.449 2.36259e-06Z" fill="#FE6535"/>
    <path d="M50.4492 4.10144e-08C50.4094 0.176771 50.3695 0.353542 50.3285 0.535669C49.2185 5.41779 49.2185 5.41779 48.5156 10.3711C48.4915 10.6083 48.4915 10.6083 48.467 10.8504C47.8671 17.2742 48.2679 24.582 52.3828 29.8828C52.793 30.3516 52.793 30.3516 53.2617 30.7617C53.413 30.9079 53.413 30.9079 53.5673 31.057C55.4097 32.7775 57.3957 33.333 59.8563 33.2769C60.8616 33.2264 61.6863 32.9864 62.5781 32.5195C62.734 32.4382 62.8899 32.3568 63.0505 32.273C66.0247 30.5451 67.6371 27.8228 69.082 24.7852C69.7637 25.4269 70.2942 26.0908 70.8069 26.8726C70.9209 27.0462 70.9209 27.0462 71.0372 27.2233C75.1326 33.5557 76.772 41.2725 75.2344 48.6914C74.6624 51.2271 73.7587 53.5763 72.5977 55.8984C75.3437 56.0539 77.6845 54.6952 79.7257 52.961C80.2457 52.475 80.7078 51.9605 81.1512 51.4043C81.2289 51.3212 81.3066 51.238 81.3867 51.1523C81.5027 51.1523 81.6188 51.1523 81.7383 51.1523C81.9104 59.4576 80.2479 67.5297 75.2344 74.3555C75.1537 74.4671 75.073 74.5788 74.9898 74.6938C74.7179 75.0694 74.4438 75.4434 74.1687 75.8166C74.0838 75.9324 73.999 76.0482 73.9116 76.1675C73.3781 76.8788 72.8051 77.5097 72.1679 78.1296C71.8618 78.4307 71.5853 78.7484 71.3123 79.0796C68.8775 81.8774 65.6665 84.0722 62.4023 85.7812C62.2444 85.864 62.0864 85.9467 61.9236 86.032C57.6686 88.2273 52.5849 90.0785 47.7246 90.011C47.5742 90.0094 47.4237 90.0078 47.2687 90.0062C47.1581 90.0041 47.0475 90.0021 46.9336 90C46.9336 89.942 46.9336 89.884 46.9336 89.8242C47.0933 89.7984 47.2531 89.7725 47.4177 89.7459C51.6412 88.9922 55.4903 86.8809 58.0078 83.3203C58.1141 83.1726 58.2204 83.0248 58.3299 82.8726C60.7309 79.3364 61.5029 74.9062 60.728 70.7357C60.0221 67.3427 58.332 64.4947 55.8984 62.0508C55.374 62.4776 54.8864 62.8836 54.4263 63.3801C53.494 64.2458 52.3123 64.7591 51.0308 64.7356C49.4163 64.5443 48.1506 63.6271 47.1643 62.3783C46.553 61.5026 46.0704 60.5921 45.7031 59.5898C45.6503 59.4471 45.5975 59.3043 45.5431 59.1573C44.5943 56.077 45.0664 52.851 46.4172 49.9878C46.7443 49.418 47.0845 48.8776 47.4609 48.3398C47.3422 48.3652 47.2235 48.3906 47.1011 48.4167C46.9443 48.4494 46.7875 48.482 46.626 48.5156C46.471 48.5482 46.316 48.5809 46.1563 48.6145C45.7031 48.6914 45.7031 48.6914 45 48.6914C45 33.0873 45 17.4832 45 1.40625C49.413 -0.0647613 49.413 -0.0647615 50.4492 4.10144e-08Z" fill="#FE421D"/>
    <path d="M47.6366 48.3398C47.5728 48.4194 47.5089 48.4989 47.443 48.5809C45.4807 51.2426 44.9875 54.6689 45.4043 57.8882C45.8104 60.0908 46.8435 62.1267 48.5156 63.6328C49.5882 64.3369 50.7424 64.6793 52.0312 64.5117C52.8831 64.2291 53.6153 63.8421 54.3163 63.2812C54.4324 63.2812 54.5484 63.2812 54.6679 63.2812C54.7277 63.129 54.7277 63.129 54.7887 62.9736C55.0775 62.4786 55.4405 62.2124 55.8984 61.875C59.1171 64.8139 60.8948 68.8921 61.2171 73.204C61.3591 77.5812 59.7611 81.5249 56.997 84.8584C54.1814 87.8486 50.1666 89.889 46.034 90.0419C41.1948 90.1364 37.2164 88.7246 33.6377 85.3957C30.9951 82.8472 29.1574 79.1791 28.9727 75.4919C28.9608 74.7651 28.9513 74.0386 28.9489 73.3118C28.9484 73.1792 28.948 73.0466 28.9475 72.91C28.9466 70.5203 29.1929 68.2552 29.707 65.918C29.7584 65.6607 29.8096 65.4035 29.8608 65.1462C30.2521 63.2979 30.9942 61.6334 31.8163 59.9414C31.8993 59.7662 31.9822 59.5911 32.0677 59.4106C34.7066 54.203 39.6643 50.4364 45.1482 48.6406C46.9644 48.089 46.9644 48.089 47.6366 48.3398Z" fill="#FBBE00"/>
    <path d="M47.6367 48.3398C47.5728 48.4194 47.5089 48.4989 47.4431 48.5809C45.4808 51.2426 44.9875 54.6689 45.4043 57.8882C45.8104 60.0908 46.8436 62.1267 48.5156 63.6328C49.5883 64.3369 50.7424 64.6793 52.0313 64.5117C52.8832 64.2291 53.6153 63.8421 54.3164 63.2812C54.4324 63.2812 54.5484 63.2812 54.668 63.2812C54.7078 63.1797 54.7477 63.0782 54.7888 62.9736C55.0776 62.4786 55.4406 62.2124 55.8984 61.875C59.1172 64.8139 60.8949 68.8921 61.2172 73.204C61.3592 77.5812 59.7611 81.5249 56.9971 84.8584C54.4038 87.6125 50.7279 89.6218 46.9336 90C46.2955 90 45.6574 90 45 90C45 76.3682 45 62.7363 45 48.6914C46.9336 48.1641 46.9336 48.1641 47.6367 48.3398Z" fill="#FEA800"/>
  </g>
  <defs>
    <clipPath id="clip0_16_3">
      <rect width="90" height="90" fill="white"/>
    </clipPath>
  </defs>
</svg>
