<svg width="90" height="90" viewBox="0 0 90 90" fill="none"
  xmlns="http://www.w3.org/2000/svg">
  <g clip-path="url(#clip0_16_34)">
    <path d="M81.211 -5.31774e-06C81.9251 0.610498 82.2302 1.09665 82.4786 1.99745C82.5408 2.21942 82.6031 2.4414 82.6672 2.6701C82.7313 2.9116 82.7953 3.15316 82.859 3.39477C82.9274 3.64687 82.9959 3.89896 83.0644 4.15102C85.0095 11.3848 86.4904 18.9608 86.5202 26.4674C86.5212 26.6714 86.5222 26.8754 86.5232 27.0856C86.5248 27.5155 86.526 27.9453 86.5267 28.3752C86.5284 29.0158 86.5338 29.6563 86.5394 30.2969C86.596 42.8405 82.6684 54.9714 74.004 64.1601C73.8757 64.2979 73.7475 64.4357 73.6153 64.5776C72.498 65.7406 71.2456 66.7075 69.961 67.6758C69.8638 67.7504 69.7667 67.8249 69.6665 67.9018C63.9317 72.2891 56.7531 74.6338 49.5704 74.8828C49.3192 74.8937 49.3192 74.8937 49.063 74.9048C40.9674 75.0896 33.3807 72.1851 27.4123 66.7783C26.9071 66.2862 26.4603 65.7621 26.0157 65.2148C25.2473 65.4895 24.5727 65.8818 23.8844 66.3135C23.7634 66.3893 23.6425 66.465 23.5179 66.5431C16.6014 70.9524 9.7259 77.037 7.55867 85.2539C7.39065 86.0623 7.24536 86.8745 7.129 87.692C6.9675 88.7123 6.74923 89.2943 5.97664 90C5.42726 90.1834 4.95558 90.1288 4.39461 90C3.85628 89.6924 3.85628 89.6924 3.5157 89.1211C2.70504 84.8579 5.4788 78.9705 7.72347 75.509C7.95779 75.1804 8.19593 74.8545 8.43758 74.5312C8.56742 74.3497 8.69725 74.1682 8.83103 73.9812C10.8236 71.2686 13.3313 68.8138 16.0526 66.8365C16.3606 66.6117 16.664 66.3814 16.9671 66.15C18.6843 64.8508 20.4909 63.7052 22.3243 62.5781C22.4942 62.4712 22.6642 62.3642 22.8393 62.254C23.2032 62.0508 23.2032 62.0508 23.5548 62.0508C23.4442 61.8545 23.3336 61.6583 23.2197 61.4561C21.4433 58.237 20.2516 54.9655 19.6876 51.3281C19.6568 51.1342 19.626 50.9403 19.5943 50.7405C19.2038 47.6989 19.3289 44.2893 20.0391 41.3086C20.0741 41.1616 20.109 41.0145 20.145 40.863C21.2501 36.3723 23.272 32.4415 26.3673 29.0039C26.469 28.879 26.5707 28.7542 26.6756 28.6256C31.5477 22.6544 39.4242 20.5102 46.7113 19.4891C57.0557 18.0394 66.5745 14.1215 74.1798 6.85546C74.3076 6.73696 74.4354 6.61845 74.567 6.49635C76.1012 5.03391 77.3892 3.28785 78.4802 1.47697C79.1844 0.375061 79.8087 -0.33859 81.211 -5.31774e-06Z" fill="#44B449"/>
    <path d="M82.0898 1.40625C82.4023 1.97569 82.5776 2.5384 82.7463 3.16475C82.8032 3.37593 82.8601 3.58712 82.9188 3.8047C82.9795 4.03424 83.0401 4.26381 83.1006 4.49341C83.1316 4.61061 83.1626 4.72782 83.1946 4.84858C85.0489 11.8765 86.4912 19.174 86.5201 26.4674C86.5211 26.6714 86.5221 26.8754 86.5231 27.0856C86.5248 27.5155 86.5259 27.9453 86.5266 28.3752C86.5283 29.0158 86.5338 29.6563 86.5393 30.2969C86.596 42.8405 82.6683 54.9714 74.0039 64.1602C73.8757 64.2979 73.7474 64.4357 73.6153 64.5776C72.4979 65.7406 71.2455 66.7075 69.9609 67.6758C69.8638 67.7504 69.7666 67.8249 69.6665 67.9018C63.9316 72.2891 56.753 74.6338 49.5703 74.8828C49.3191 74.8937 49.3191 74.8937 49.0629 74.9048C40.9765 75.0893 33.3873 72.1912 27.4239 66.79C26.8582 66.2385 26.3431 65.6475 25.8398 65.0391C26.3296 64.5119 26.8009 64.1549 27.4308 63.8093C27.6059 63.7123 27.7811 63.6153 27.9615 63.5154C28.1496 63.4127 28.3377 63.3101 28.5315 63.2043C28.9321 62.9831 29.3326 62.7618 29.7331 62.5404C29.9354 62.4289 30.1377 62.3174 30.3461 62.2026C31.2176 61.7198 32.0825 61.2257 32.948 60.7324C34.5554 59.8186 36.1813 58.943 37.8159 58.0788C38.8187 57.5431 39.799 56.9857 40.7613 56.3811C41.0566 56.1971 41.0566 56.1971 41.3578 56.0092C41.7329 55.7729 42.1059 55.533 42.4761 55.2891C42.6458 55.1823 42.8154 55.0754 42.9902 54.9653C43.2103 54.8217 43.2103 54.8217 43.4348 54.6752C44.1748 54.4099 44.7648 54.5322 45.5273 54.668C45.6835 54.6951 45.8397 54.7222 46.0005 54.7501C46.5288 54.8459 47.0556 54.9478 47.5825 55.0511C47.7765 55.0886 47.9704 55.1261 48.1703 55.1648C48.7872 55.2842 49.404 55.4045 50.0208 55.5249C50.4301 55.6044 50.8395 55.6838 51.2488 55.7632C51.5481 55.8212 51.5481 55.8212 51.8534 55.8804C52.0501 55.9185 52.2468 55.9567 52.4494 55.9959C52.6435 56.0336 52.8377 56.0712 53.0377 56.11C53.5811 56.2154 54.1245 56.3206 54.668 56.4258C54.8199 56.4552 54.9718 56.4847 55.1283 56.515C55.5195 56.5907 55.9108 56.6656 56.3022 56.7403C56.6134 56.8 56.6134 56.8 56.931 56.8609C58.4331 57.1268 58.4331 57.1268 59.7876 56.5796C60.1799 55.978 60.2637 55.7226 60.1172 55.0195C59.3772 54.0237 58.5596 53.9183 57.4036 53.7231C57.2183 53.689 57.0331 53.6549 56.8423 53.6197C56.4209 53.5423 55.9992 53.4666 55.5773 53.3921C54.7399 53.2442 53.904 53.0885 53.0681 52.9328C51.434 52.629 49.7992 52.3291 48.1641 52.0312C48.1641 51.9152 48.1641 51.7992 48.1641 51.6797C48.4155 51.4607 48.4155 51.4607 48.7697 51.2135C48.9649 51.0754 48.9649 51.0754 49.1641 50.9345C49.3054 50.836 49.4467 50.7375 49.5923 50.636C51.0267 49.6185 52.4188 48.5627 53.7891 47.4609C53.9565 47.3277 54.124 47.1945 54.2965 47.0572C55.3363 46.2206 56.3252 45.3419 57.3013 44.4328C57.6779 44.0826 58.0642 43.7469 58.4555 43.4132C59.4236 42.5693 60.3234 41.6559 61.2294 40.7466C61.5338 40.4413 61.8391 40.1369 62.1445 39.8326C63.1468 38.831 64.1261 37.8232 65.0391 36.7383C65.1932 36.5607 65.3474 36.3834 65.5019 36.2061C69.0728 32.0363 72.1543 27.5367 74.8246 22.7439C75.0269 22.3811 75.2313 22.0195 75.4362 21.6582C78.8972 15.4001 81.1549 8.48477 82.0898 1.40625Z" fill="#44B449"/>
    <path d="M81.211 -2.14274e-06C81.7384 0.340574 81.7384 0.340574 82.0899 0.878904C83.2052 9.35079 76.558 20.6261 72.2462 27.4219C72.1317 27.6025 72.0173 27.7831 71.8994 27.9691C68.6025 33.0299 64.5927 37.5489 60.337 41.814C60.2415 41.9099 60.146 42.0058 60.0477 42.1047C58.9894 43.1669 57.9231 44.207 56.7774 45.1758C56.5808 45.3468 56.3845 45.518 56.1883 45.6894C54.2423 47.3752 52.2346 48.9564 50.1527 50.4712C50.0157 50.5712 49.8788 50.6712 49.7378 50.7743C49.6093 50.8669 49.4809 50.9595 49.3486 51.0548C49.2345 51.1373 49.1203 51.2199 49.0027 51.3049C48.6915 51.5039 48.6915 51.5039 48.1641 51.6797C48.1641 51.7957 48.1641 51.9117 48.1641 52.0312C48.4235 52.0571 48.4235 52.0571 48.6881 52.0834C50.5897 52.2839 52.4515 52.6071 54.3254 52.9841C54.891 53.0952 55.4577 53.199 56.0249 53.3022C56.4222 53.3766 56.8195 53.4509 57.2169 53.5254C57.4047 53.5587 57.5926 53.5919 57.7861 53.6262C59.4379 53.9425 59.4379 53.9425 60.1173 54.668C60.368 55.1695 60.3476 55.5178 60.293 56.0742C59.9767 56.5488 59.751 56.8726 59.2384 57.1289C57.9608 57.2395 56.7679 57.0271 55.525 56.7554C55.1387 56.6744 54.7523 56.5939 54.3659 56.5137C54.1606 56.4708 53.9553 56.428 53.7438 56.3839C52.5532 56.1415 51.3583 55.9219 50.1637 55.7007C49.7072 55.6162 49.2508 55.5314 48.7945 55.4466C48.5753 55.4062 48.3561 55.3658 48.1303 55.3242C47.6678 55.2351 47.2089 55.1417 46.7491 55.0403C46.6321 55.0151 46.515 54.9898 46.3944 54.9638C46.0713 54.8936 45.7488 54.8211 45.4262 54.7484C44.49 54.6233 43.6853 54.7092 42.8838 55.2235C42.7556 55.3035 42.6274 55.3836 42.4952 55.466C42.3575 55.5543 42.2197 55.6427 42.0777 55.7336C40.618 56.6386 39.1343 57.4906 37.6283 58.3154C37.4109 58.4348 37.1935 58.5541 36.9762 58.6734C36.3113 59.0381 35.6459 59.4019 34.9805 59.7656C31.3395 61.7551 31.3395 61.7551 27.7406 63.8196C27.5905 63.9074 27.4403 63.9953 27.2857 64.0858C26.3894 64.6181 25.5327 65.1908 24.6829 65.7944C24.1696 66.1559 23.6465 66.5006 23.1214 66.8446C16.3516 71.2845 9.19294 77.3912 7.46005 85.7284C7.33986 86.3817 7.22263 87.0342 7.129 87.692C6.9675 88.7123 6.74923 89.2943 5.97664 90C5.42726 90.1834 4.95558 90.1288 4.39461 90C3.85628 89.6924 3.85628 89.6924 3.5157 89.1211C2.70504 84.8579 5.4788 78.9705 7.72347 75.509C7.95779 75.1804 8.19593 74.8545 8.43758 74.5312C8.56742 74.3497 8.69725 74.1682 8.83103 73.9812C10.8236 71.2686 13.3313 68.8138 16.0526 66.8365C16.3606 66.6117 16.664 66.3814 16.9671 66.1501C19.6064 64.1515 22.4023 62.4997 25.3469 60.994C26.3226 60.4948 27.2855 59.9748 28.2459 59.447C29.7359 58.6298 31.2304 57.8215 32.7283 57.019C32.8869 56.934 32.8869 56.934 33.0486 56.8473C34.0483 56.3111 35.0483 55.7758 36.0572 55.2571C41.2163 52.6043 46.159 49.4199 50.673 45.7724C50.9377 45.5588 51.2049 45.3481 51.4724 45.138C53.8763 43.2481 56.2024 41.2243 58.3368 39.0351C58.711 38.6719 58.711 38.6719 59.2384 38.3203C59.2768 37.7577 59.2768 37.7577 59.2054 37.0933C59.1954 36.9688 59.1854 36.8443 59.1751 36.7161C59.1414 36.3129 59.1028 35.9104 59.0626 35.5078C59.0495 35.3766 59.0365 35.2455 59.0231 35.1103C58.9274 34.1688 58.8202 33.2288 58.711 32.2888C58.1529 27.4288 58.1529 27.4288 58.1287 25.675C58.1211 25.4832 58.1211 25.4832 58.1133 25.2874C58.1061 24.6808 58.1362 24.3253 58.4892 23.8232C59.1376 23.3853 59.7156 23.4243 60.4688 23.5547C60.8973 23.7964 60.8973 23.7964 61.172 24.2578C61.5104 25.516 61.6272 26.8168 61.7501 28.1099C61.7691 28.3025 61.7881 28.4951 61.8077 28.6935C61.8676 29.3023 61.9263 29.9111 61.9849 30.52C62.0256 30.9354 62.0663 31.3509 62.1072 31.7663C62.2065 32.779 62.3049 33.7918 62.4024 34.8047C65.6887 30.9949 68.6775 27.0176 71.1841 22.6425C71.3774 22.3067 71.5749 21.9736 71.7724 21.6403C73.7818 18.1961 75.3049 14.5414 76.5638 10.7666C76.6291 10.5718 76.6291 10.5718 76.6958 10.3731C77.6046 7.64472 78.2548 4.90889 78.633 2.05616C78.8245 0.815314 78.8245 0.815314 79.344 0.240324C80.0037 -0.103773 80.4862 -0.163678 81.211 -2.14274e-06Z" fill="#009549"/>
  </g>
  <defs>
    <clipPath id="clip0_16_34">
      <rect width="90" height="90" fill="white"/>
    </clipPath>
  </defs>
</svg>
