<svg width="90" height="90" viewBox="0 0 90 90" fill="none"
  xmlns="http://www.w3.org/2000/svg">
  <g clip-path="url(#clip0_16_15)">
    <path d="M53.921 2.76855C55.3762 3.88186 56.6421 5.23421 57.828 6.62544C58.3294 7.19747 58.8501 7.75072 59.3702 8.30566C60.4476 9.45574 61.5154 10.6139 62.5782 11.7773C62.8967 12.1254 63.2153 12.4732 63.534 12.821C63.6531 12.9509 63.6531 12.9509 63.7745 13.0835C64.3704 13.7334 64.9681 14.3816 65.5665 15.0293C66.3254 15.8507 67.0835 16.6729 67.8375 17.4988C68.2406 17.9402 68.6459 18.3791 69.056 18.8141C72.0804 22.0339 73.8388 25.3518 74.1691 29.7959C74.1907 30.0771 74.1907 30.0771 74.2128 30.364C74.4406 33.3934 74.6237 36.4261 74.8129 39.4581C74.8341 39.7976 74.8553 40.137 74.8765 40.4765C74.9649 41.8913 75.0531 43.306 75.1408 44.7208C75.2647 46.7224 75.3899 48.7239 75.5168 50.7254C75.6068 52.1478 75.6955 53.5704 75.7833 54.993C75.8353 55.8357 75.8878 56.6784 75.9418 57.521C76.1434 60.6726 76.3267 63.8181 76.3313 66.9771C76.332 67.2042 76.3326 67.4313 76.3333 67.6653C76.3083 71.689 74.6159 75.0575 71.8946 77.97C70.8469 78.9833 69.6882 79.7156 68.4331 80.4471C68.0092 80.6942 67.5877 80.945 67.1664 81.1965C66.1669 81.7917 65.1638 82.3805 64.1603 82.9687C63.9573 83.0877 63.7544 83.2067 63.5515 83.3257C63.3394 83.45 63.1274 83.5743 62.9154 83.6987C62.8088 83.7611 62.7022 83.8236 62.5924 83.888C62.0474 84.2075 61.5023 84.5268 60.9569 84.8456C59.9546 85.4319 58.954 86.0204 57.9585 86.6183C53.8092 89.1086 50.5522 90.1236 45.6842 90.0917C45.0015 90.0879 44.3191 90.0917 43.6364 90.0961C40.7727 90.0996 38.1841 89.9656 35.5848 88.6487C35.4602 88.5877 35.3357 88.5267 35.2073 88.4639C34.197 87.96 33.2285 87.3928 32.2683 86.7995C31.3079 86.2077 30.3319 85.6424 29.3576 85.074C27.0428 83.7227 24.7372 82.3569 22.4451 80.9674C22.0173 80.7104 21.587 80.4588 21.155 80.2091C18.0129 78.3686 15.679 75.6919 14.4142 72.2461C14.3453 72.0655 14.2764 71.8849 14.2054 71.6988C13.7159 70.1437 13.6587 68.6371 13.6644 67.0136C13.6647 66.8344 13.6647 66.8344 13.6651 66.6516C13.6759 63.2416 13.9083 59.8408 14.1254 56.439C14.1846 55.5066 14.2419 54.5741 14.2995 53.6416C14.3961 52.0808 14.4941 50.52 14.5929 48.9593C14.7068 47.1623 14.8187 45.3651 14.9296 43.5678C15.0372 41.8245 15.1459 40.0812 15.2551 38.338C15.3012 37.6018 15.347 36.8656 15.3926 36.1294C15.4462 35.2631 15.5009 34.3969 15.5562 33.5308C15.5762 33.2153 15.5959 32.8998 15.6153 32.5843C16.0058 26.2331 17.5914 22.4007 22.0037 17.7608C22.6309 17.1006 23.2416 16.4275 23.8473 15.7475C24.3872 15.1498 24.9377 14.5624 25.4884 13.9746C26.169 13.248 26.8466 12.5198 27.5099 11.7773C28.1732 11.0348 28.8508 10.3067 29.5313 9.58008C30.2189 8.84589 30.9036 8.11012 31.5748 7.36084C31.8311 7.07511 32.0874 6.78947 32.3438 6.50391C32.464 6.37003 32.464 6.37003 32.5867 6.23345C38.298 -0.106421 46.4811 -2.35506 53.921 2.76855Z" fill="#8FA3AD"/>
    <path d="M46.2305 0C50.6538 0.219261 53.9926 2.48967 56.9531 5.625C57.2451 5.95076 57.531 6.28086 57.8156 6.61308C58.3219 7.18843 58.8461 7.74644 59.3701 8.30566C60.4475 9.45575 61.5153 10.6139 62.5781 11.7773C62.8966 12.1254 63.2152 12.4732 63.5339 12.821C63.653 12.9509 63.653 12.9509 63.7744 13.0835C64.3703 13.7334 64.968 14.3816 65.5664 15.0293C66.3253 15.8507 67.0834 16.6729 67.8374 17.4988C68.2405 17.9402 68.6459 18.3791 69.0559 18.8141C72.0803 22.0339 73.8387 25.3518 74.169 29.7959C74.1906 30.0771 74.1906 30.0771 74.2127 30.364C74.4405 33.3934 74.6236 36.4261 74.8128 39.4581C74.834 39.7976 74.8552 40.137 74.8764 40.4765C74.9648 41.8913 75.053 43.306 75.1407 44.7208C75.2647 46.7224 75.3898 48.7239 75.5167 50.7254C75.6067 52.1478 75.6954 53.5704 75.7832 54.993C75.8352 55.8357 75.8877 56.6784 75.9417 57.521C76.1433 60.6726 76.3266 63.8181 76.3312 66.9771C76.3319 67.2042 76.3325 67.4313 76.3332 67.6653C76.3082 71.689 74.6158 75.0575 71.8945 77.97C70.8468 78.9833 69.6881 79.7156 68.433 80.4471C68.0091 80.6942 67.5876 80.945 67.1663 81.1965C66.1668 81.7917 65.1637 82.3805 64.1602 82.9688C63.9572 83.0877 63.7543 83.2067 63.5514 83.3257C63.3393 83.45 63.1273 83.5743 62.9153 83.6987C62.8087 83.7611 62.7021 83.8236 62.5923 83.888C62.0473 84.2075 61.5022 84.5268 60.9568 84.8456C59.9545 85.4319 58.9539 86.0204 57.9584 86.6183C53.8091 89.1086 50.5521 90.1236 45.6841 90.0917C45.0014 90.0879 44.319 90.0916 43.6363 90.0961C40.7882 90.0994 38.4945 89.8989 35.8594 88.7695C36.2074 85.6951 36.5555 82.6207 36.9141 79.4531C39.8584 79.4092 39.8584 79.4092 40.7735 79.4008C43.9776 79.3465 46.2706 78.0905 48.9221 76.377C49.2592 76.1601 49.5964 75.9434 49.9335 75.7267C50.1905 75.5614 50.1905 75.5614 50.4527 75.3927C50.9744 75.06 51.4991 74.7327 52.0251 74.407C55.1771 72.4488 57.5742 70.6741 58.7109 66.9727C58.9056 66.0544 58.9168 65.1632 58.9138 64.2291C58.9134 64.0608 58.913 63.8925 58.9126 63.7191C58.8962 61.5029 58.7598 59.2927 58.6299 57.0808C58.6031 56.6123 58.5764 56.1438 58.5497 55.6752C58.494 54.7005 58.4374 53.7258 58.3803 52.7511C58.3148 51.6326 58.2507 50.5141 58.1874 49.3955C58.1258 48.3069 58.0631 47.2184 57.9999 46.1298C57.9734 45.672 57.9472 45.2141 57.9213 44.7562C57.6043 39.1798 56.925 35.7172 53.1844 31.4286C52.7419 30.9198 52.3045 30.4065 51.8665 29.8938C51.0387 28.9272 50.2063 27.9646 49.3715 27.0041C48.7994 26.3453 48.232 25.6829 47.6675 25.0176C45.7806 22.7996 44.1775 21.4044 41.3086 20.5664C41.5552 19.0764 41.896 17.6197 42.2665 16.1561C42.3261 15.9184 42.3857 15.6807 42.4453 15.4431C42.6018 14.8192 42.759 14.1955 42.9163 13.5719C43.072 12.9547 43.2269 12.3373 43.3819 11.72C43.6262 10.7476 43.8706 9.77521 44.1152 8.80288C44.1449 8.68451 44.1747 8.56615 44.2054 8.44419C44.3527 7.85874 44.5003 7.27334 44.6482 6.68805C44.8146 6.0296 44.9804 5.37103 45.1463 4.71245C45.2192 4.4249 45.2192 4.4249 45.2936 4.13155C45.6382 2.76048 45.9418 1.38388 46.2305 0Z" fill="#607D8B"/>
    <path d="M45.8789 1.40625C48.6118 2.58597 50.6709 4.80725 52.5924 7.02159C53.1093 7.60916 53.647 8.17654 54.1846 8.74512C55.2932 9.92277 56.3902 11.11 57.4805 12.3047C57.8025 12.6564 58.1249 13.0079 58.4473 13.3594C58.9287 13.8845 59.4102 14.4097 59.8913 14.9352C60.6409 15.7537 61.3913 16.5714 62.1448 17.3864C62.4113 17.6748 62.6774 17.9636 62.9434 18.2524C63.2732 18.6102 63.6047 18.966 63.9377 19.3208C65.2693 20.7533 66.3201 22.1969 67.2034 23.9392C67.2628 24.0562 67.3222 24.1731 67.3834 24.2936C67.8775 25.3002 68.4517 26.47 68.2031 27.5977C67.7635 28.0308 67.2535 28.3388 66.731 28.6633C66.4219 28.8646 66.1132 29.0662 65.8047 29.2683C65.647 29.3703 65.4894 29.4723 65.327 29.5773C64.626 30.0391 63.9479 30.5302 63.2703 31.0254C63.1416 31.1188 63.0129 31.2122 62.8803 31.3084C62.3478 31.695 61.8161 32.0826 61.2847 32.4706C59.7514 33.5893 58.2262 34.6995 56.6016 35.6836C56.5118 35.5599 56.4221 35.4362 56.3297 35.3087C55.3374 33.9611 54.2803 32.6875 53.1816 31.4258C52.7403 30.9176 52.3037 30.4055 51.8665 29.8938C51.0387 28.9272 50.2063 27.9646 49.3715 27.0041C48.7994 26.3453 48.232 25.6829 47.6675 25.0176C45.7806 22.7996 44.1775 21.4044 41.3086 20.5664C41.5552 19.0764 41.896 17.6197 42.2665 16.1561C42.3261 15.9184 42.3857 15.6807 42.4453 15.4431C42.6018 14.8192 42.759 14.1955 42.9163 13.5719C43.072 12.9547 43.2269 12.3373 43.3819 11.72C43.6257 10.7494 43.8696 9.77887 44.1138 8.80837C44.1435 8.6903 44.1732 8.57222 44.2038 8.45057C44.3834 7.737 44.5634 7.02353 44.7436 6.31014C44.8305 5.96587 44.9173 5.62156 45.0039 5.27723C45.1105 4.85405 45.2173 4.43096 45.3245 4.00795C45.3719 3.8193 45.4193 3.63065 45.4682 3.43627C45.5095 3.27259 45.5508 3.1089 45.5934 2.94026C45.7099 2.43135 45.798 1.92191 45.8789 1.40625Z" fill="#778F9B"/>
    <path d="M68.3788 30.4102C68.4948 30.4102 68.6108 30.4102 68.7303 30.4102C68.9082 33.2223 69.0855 36.0345 69.2622 38.8468C69.3443 40.1534 69.4266 41.4601 69.5093 42.7667C69.6049 44.2783 69.7 45.79 69.7946 47.3016C69.8024 47.4247 69.8101 47.5477 69.818 47.6744C70.0312 51.0809 70.2316 54.4877 70.3846 57.8975C70.4399 59.1131 70.5153 60.3155 70.6639 61.5234C70.6864 61.8432 70.7055 62.1632 70.7196 62.4834C70.727 62.6516 70.7344 62.8199 70.742 62.9932C70.7523 63.2554 70.7523 63.2554 70.7628 63.5229C70.77 63.7064 70.7772 63.8898 70.7847 64.0788C70.8277 65.2483 70.8622 66.4176 70.8727 67.5879C70.875 67.7189 70.8772 67.85 70.8796 67.985C70.8811 68.8743 70.7143 69.6292 70.4882 70.4883C68.314 69.9788 66.182 69.3538 64.0474 68.7C63.4947 68.5308 62.9416 68.3631 62.3885 68.1956C62.0351 68.0879 61.6817 67.9801 61.3283 67.8722C61.1639 67.8224 60.9995 67.7725 60.8301 67.7212C60.6009 67.6508 60.6009 67.6508 60.3672 67.5789C60.2336 67.5381 60.1 67.4972 59.9623 67.4552C59.5846 67.3224 59.2428 67.1545 58.8866 66.9727C58.888 66.8502 58.8893 66.7278 58.8908 66.6016C58.9218 63.3765 58.8183 60.1785 58.6236 56.9593C58.5963 56.491 58.5691 56.0227 58.5421 55.5544C58.4859 54.5837 58.4286 53.6131 58.3705 52.6426C58.2891 51.2807 58.2096 49.9188 58.1304 48.5568C58.0178 46.623 57.9044 44.6891 57.789 42.7554C57.7782 42.5708 57.7673 42.3862 57.7561 42.1961C57.7455 42.0196 57.7349 41.8431 57.724 41.6613C57.7143 41.4899 57.7047 41.3185 57.6947 41.142C57.667 40.7571 57.629 40.3728 57.5844 39.9895C57.5621 39.7863 57.5397 39.5832 57.5167 39.3738C57.4935 39.1896 57.4704 39.0053 57.4465 38.8154C57.4803 38.3203 57.4803 38.3203 57.7933 37.9125C58.2504 37.53 58.7306 37.2267 59.2382 36.9141C59.5632 36.6937 59.8852 36.4692 60.2074 36.2447C60.5659 35.9957 60.9267 35.7503 61.2878 35.5051C62.2099 34.8751 63.1124 34.2189 64.0158 33.5626C65.0988 32.7766 66.1902 32.0032 67.2859 31.2352C67.8573 30.8534 67.8573 30.8534 68.3788 30.4102Z" fill="#778F9B"/>
    <path d="M43.5938 -1.6094e-06C43.3504 1.46474 43.0187 2.89722 42.6544 4.33616C42.5965 4.56669 42.5387 4.79724 42.481 5.0278C42.3275 5.63948 42.1734 6.25097 42.019 6.86242C41.8595 7.49506 41.7006 8.12786 41.5417 8.76065C41.351 9.5196 41.1603 10.2785 40.9692 11.0374C40.5969 12.5165 40.2266 13.996 39.8591 15.4763C39.8175 15.6435 39.776 15.8107 39.7332 15.9829C39.5042 16.9041 39.5042 16.9041 39.2759 17.8255C39.1758 18.2298 39.0753 18.6339 38.9747 19.0379C38.9199 19.2591 38.865 19.4802 38.8086 19.708C38.6719 20.2148 38.6719 20.2148 38.4961 20.5664C38.1526 20.7094 37.8035 20.839 37.4524 20.9619C34.8986 21.922 33.3702 23.4275 31.6846 25.5315C31.3021 25.9997 30.9055 26.4481 30.498 26.8945C29.9539 27.4915 29.4343 28.1007 28.927 28.7292C28.3863 29.3978 27.8284 30.0412 27.2461 30.6738C26.2834 31.7203 25.3859 32.8152 24.5036 33.9299C24.3118 34.1689 24.1103 34.4002 23.9062 34.6289C23.7902 34.6289 23.6742 34.6289 23.5547 34.6289C23.4521 34.4281 23.3495 34.2272 23.2437 34.0203C22.8541 33.2578 22.4641 32.4955 22.0741 31.7332C21.907 31.4065 21.74 31.0798 21.573 30.753C21.3297 30.2768 21.0861 29.8006 20.8424 29.3246C20.7216 29.0883 20.7216 29.0883 20.5983 28.8472C20.1892 28.0496 19.776 27.2545 19.355 26.4631C19.274 26.3106 19.1929 26.1581 19.1095 26.0011C18.9558 25.7128 18.8015 25.4249 18.6465 25.1374C18.5778 25.0087 18.5091 24.8799 18.4384 24.7473C18.3781 24.6353 18.3179 24.5233 18.2558 24.4079C18.1055 24.082 18.1055 24.082 18.0187 23.6999C17.9894 23.594 17.96 23.488 17.9297 23.3789C17.8137 23.3209 17.6977 23.2629 17.5781 23.2031C18.4665 21.6628 19.5273 20.4388 20.7422 19.1602C21.0033 18.8718 21.2634 18.5826 21.5222 18.2922C22.3921 17.3233 23.2761 16.3677 24.1607 15.4121C24.6072 14.9296 25.0533 14.4466 25.4993 13.9636C25.6304 13.8216 25.6304 13.8216 25.7642 13.6767C26.4272 12.9584 27.088 12.238 27.7481 11.5171C28.3409 10.8699 28.9357 10.2247 29.5312 9.58008C30.2101 8.84526 30.8878 8.10934 31.5637 7.37182C31.6427 7.28588 31.7216 7.19993 31.803 7.11137C32.2073 6.67079 32.6095 6.22847 33.0084 5.78293C35.7521 2.7278 39.2629 -0.0300026 43.5938 -1.6094e-06Z" fill="#77909C"/>
    <path d="M16.3477 26.3672C16.7456 26.8689 17.0446 27.3699 17.3262 27.9444C17.4107 28.1154 17.4951 28.2863 17.5821 28.4624C17.6715 28.6448 17.7608 28.8271 17.8529 29.0149C18.52 30.3629 19.1942 31.7057 19.8963 33.0359C19.9664 33.1711 20.0365 33.3063 20.1088 33.4456C20.513 34.2199 20.9406 34.9655 21.419 35.6966C22.0969 36.8941 22.427 37.7818 22.2962 39.1642C22.2737 39.4766 22.2513 39.7891 22.2289 40.1015C22.2156 40.2681 22.2023 40.4347 22.1886 40.6063C22.1322 41.3465 22.0912 42.0874 22.0495 42.8285C22.0146 43.4485 21.978 44.0684 21.941 44.6883C21.887 45.5932 21.8334 46.4981 21.7802 47.403C21.7698 47.579 21.7698 47.579 21.7593 47.7586C21.7452 47.9981 21.7311 48.2376 21.717 48.4771C21.6233 50.0702 21.5293 51.6632 21.4341 53.2562C21.3693 54.3404 21.3052 55.4246 21.2419 56.5089C21.2087 57.0785 21.1749 57.6481 21.1406 58.2176C20.9571 61.2551 20.9571 61.2551 20.8906 64.2968C20.8899 64.4919 20.8899 64.4919 20.8892 64.6911C20.8964 65.767 21.0352 66.803 21.2696 67.8516C19.6733 68.9579 18.0695 70.053 16.4576 71.1365C16.2957 71.2462 16.1337 71.3559 15.9669 71.4689C15.8157 71.5702 15.6644 71.6714 15.5087 71.7757C15.3737 71.8665 15.2388 71.9573 15.0998 72.0509C14.7657 72.2461 14.7657 72.2461 14.4141 72.2461C13.7747 70.5103 13.6506 68.8443 13.661 67.006C13.6613 66.8869 13.6617 66.7677 13.662 66.645C13.6759 63.2374 13.9084 59.8384 14.1254 56.439C14.1846 55.5066 14.2419 54.5741 14.2994 53.6416C14.3961 52.0808 14.4941 50.52 14.5929 48.9593C14.7068 47.1623 14.8187 45.3651 14.9296 43.5678C15.0372 41.8245 15.1459 40.0812 15.2551 38.338C15.3012 37.6018 15.347 36.8656 15.3926 36.1294C15.4462 35.2631 15.5009 34.3969 15.5562 33.5308C15.5762 33.2153 15.5959 32.8998 15.6153 32.5843C15.8972 27.9998 15.8972 27.9998 16.3477 26.3672Z" fill="#78909C"/>
    <path d="M57.6562 69.4336C59.0144 69.7119 60.3293 70.0964 61.6553 70.4993C61.885 70.5686 62.1147 70.638 62.3444 70.7073C64.7703 71.4407 67.1905 72.1931 69.6094 72.9492C68.9978 74.8505 67.8077 76.2664 66.4453 77.6953C66.3544 77.8014 66.2636 77.9074 66.17 78.0167C64.3981 79.9967 61.5634 81.1834 59.2927 82.5077C57.6217 83.4826 55.9608 84.4733 54.3065 85.4765C54.0534 85.6294 54.0534 85.6294 53.7952 85.7854C53.6491 85.8741 53.503 85.9627 53.3524 86.0541C52.8629 86.3358 52.3627 86.5877 51.8555 86.8359C51.0761 85.6669 50.2968 84.4979 49.5174 83.3289C49.433 83.2022 49.3485 83.0755 49.2614 82.9449C49.091 82.6893 48.9206 82.4336 48.7503 82.1779C48.3256 81.5407 47.9005 80.9038 47.4745 80.2676C47.3933 80.1462 47.3121 80.0248 47.2285 79.8997C47.0748 79.67 46.921 79.4404 46.767 79.2109C46.2502 78.4379 46.2502 78.4379 46.0547 78.0469C46.1596 77.9932 46.2645 77.9395 46.3726 77.8841C47.5364 77.2703 48.638 76.5884 49.7372 75.8666C50.4749 75.3824 51.2167 74.907 51.9667 74.442C55.2499 72.4065 55.2499 72.4065 57.6562 69.4336Z" fill="#778F9B"/>
    <path d="M22.3242 70.1367C22.4874 70.3053 22.4874 70.3053 22.6538 70.4773C23.9934 71.8051 25.3533 72.9103 26.9714 73.8831C27.3436 74.1112 27.7158 74.3394 28.0879 74.5676C28.2715 74.6795 28.4551 74.7913 28.6443 74.9066C29.432 75.3888 30.2125 75.8823 30.9924 76.377C31.1191 76.457 31.2457 76.5371 31.3762 76.6196C32.4033 77.2689 33.428 77.9219 34.4531 78.5742C34.1051 81.4746 33.757 84.375 33.3984 87.3633C29.7293 85.2666 26.0656 83.167 22.4535 80.9731C22.0223 80.7135 21.5885 80.4595 21.1528 80.2077C19.9602 79.5091 18.9072 78.7652 17.9187 77.7942C17.8307 77.7082 17.7428 77.6221 17.6521 77.5335C16.84 76.6896 16.2507 75.7041 15.6445 74.707C15.7657 74.6248 15.8868 74.5426 16.0117 74.4578C19.1772 72.3107 19.1772 72.3107 22.3242 70.1367Z" fill="#77909C"/>
    <path d="M43.7695 79.1016C44.6179 80.3741 45.4624 81.6493 46.3063 82.9249C46.5484 83.2906 46.7909 83.6561 47.0336 84.0215C47.3837 84.5485 47.7328 85.0762 48.0817 85.6041C48.1903 85.7671 48.2988 85.9301 48.4107 86.098C48.5116 86.2511 48.6125 86.4042 48.7165 86.5619C48.8052 86.6957 48.8939 86.8296 48.9853 86.9675C49.2289 87.3804 49.4038 87.7933 49.5703 88.2422C45.842 90.1574 41.7329 90.6729 37.6646 89.5022C37.053 89.2837 36.4563 89.0253 35.8594 88.7695C36.2074 85.6951 36.5555 82.6207 36.9141 79.4531C39.9463 79.3762 39.9463 79.3762 40.9002 79.3533C41.1508 79.3466 41.4013 79.3398 41.6519 79.333C41.7812 79.3301 41.9104 79.3272 42.0436 79.3242C42.6402 79.3072 43.1984 79.2848 43.7695 79.1016Z" fill="#778F9B"/>
  </g>
  <defs>
    <clipPath id="clip0_16_15">
      <rect width="90" height="90" fill="white"/>
    </clipPath>
  </defs>
</svg>
