<svg width="90" height="90" viewBox="0 0 90 90" fill="none"
  xmlns="http://www.w3.org/2000/svg">
  <path d="M62.5186 13.1568C62.9236 13.5294 63.3377 13.8893 63.7538 14.2493C64.4847 14.901 65.1238 15.5894 65.7424 16.3477C65.8135 16.4342 65.8847 16.5208 65.958 16.61C71.2104 23.0296 74.09 30.6924 74.07 39.0015C74.0698 39.2263 74.0698 39.2263 74.0697 39.4556C74.0623 42.0006 73.8817 44.4478 73.3009 46.9336C73.2642 47.0923 73.2275 47.251 73.1896 47.4144C72.5657 50.0084 71.6248 52.5612 70.3422 54.9049C70.1105 55.4309 70.118 55.5525 70.3127 56.0742C70.6786 56.4257 71.0405 56.7446 71.4333 57.063C71.6594 57.2511 71.8853 57.4395 72.111 57.6281C72.2235 57.7217 72.3359 57.8152 72.4518 57.9116C72.9043 58.2941 73.3383 58.6932 73.7734 59.0955C74.3803 59.6528 74.9982 60.1841 75.641 60.6995C76.5295 61.4156 77.3577 62.1826 78.1879 62.9641C78.808 63.5448 79.4396 64.0991 80.1015 64.6326C83.014 66.9891 85.3672 69.5814 85.7814 73.4766C86.0076 76.825 85.0972 79.795 82.8831 82.3474C80.6342 84.6172 77.9132 85.7495 74.7292 85.8582C71.6414 85.7786 68.8469 84.5828 66.6213 82.4414C65.9737 81.7451 65.3703 81.0117 64.7641 80.2796C64.3889 79.8347 63.995 79.4081 63.6 78.9807C63.0427 78.3738 62.5114 77.7559 61.996 77.1131C61.371 76.3377 60.7116 75.6074 60.0295 74.8828C59.3405 74.1509 58.674 73.4124 58.0409 72.6306C57.9174 72.4781 57.794 72.3256 57.6667 72.1685C57.4188 71.8604 57.1722 71.5514 56.9265 71.2415C56.8048 71.0945 56.6832 70.9474 56.5578 70.7959C56.4517 70.6645 56.3457 70.5331 56.2364 70.3977C55.9172 70.0949 55.9172 70.0949 55.5003 70.1436C54.8749 70.3634 54.2925 70.6527 53.7013 70.9497C49.8615 72.8033 45.466 74.003 41.1879 74.0458C41.0452 74.0475 40.9025 74.0493 40.7555 74.051C37.6018 74.0812 34.546 74.0612 31.465 73.3008C31.3047 73.2613 31.1443 73.2217 30.9791 73.181C29.8983 72.906 28.8343 72.5901 27.7736 72.2461C27.6524 72.2077 27.5313 72.1693 27.4064 72.1297C23.0724 70.7303 19.2022 68.2211 15.8205 65.2149C15.6462 65.0621 15.472 64.9094 15.2924 64.7521C14.3385 63.9033 13.4641 63.0387 12.6564 62.0508C12.582 61.9628 12.5075 61.8748 12.4308 61.7841C6.46841 54.7377 3.62137 45.5458 4.25728 36.3599C4.68081 31.6802 5.87351 27.1228 8.10224 22.9744C8.24434 22.7086 8.38121 22.44 8.51732 22.1711C10.81 17.7372 14.5198 13.5296 18.633 10.7227C18.7469 10.6446 18.8608 10.5666 18.9781 10.4862C32.0467 1.61794 50.14 2.05805 62.5186 13.1568ZM29.1524 21.3231C27.0626 23.7746 25.9707 26.8856 26.1119 30.0984C26.2181 30.9826 26.4511 31.5349 27.0705 32.168C27.2663 32.3746 27.2663 32.3746 27.466 32.5855C28.3311 33.0967 29.2451 33.325 30.2455 33.1458C31.3177 32.8112 32.0977 32.0428 32.6735 31.1023C32.8947 30.4859 32.9533 29.8489 33.0361 29.2017C33.268 27.4362 33.8413 26.1827 35.1564 24.961C36.832 23.684 38.5693 23.5812 40.6056 23.7305C42.172 23.9715 43.4383 24.9664 44.363 26.2244C45.353 27.8541 45.5236 29.612 45.1759 31.4649C45.0046 32.0389 44.7756 32.531 44.4728 33.0469C44.4087 33.1636 44.3446 33.2803 44.2785 33.4005C43.678 34.3409 42.8473 34.8602 41.9167 35.4341C39.081 37.1836 37.0111 39.5988 36.0573 42.8357C35.7255 44.3438 35.4953 46.3422 36.1562 47.7796C36.7057 48.5371 37.2838 49.0328 38.1447 49.3945C39.3531 49.5586 40.3745 49.5118 41.3754 48.7793C42.2568 47.9637 42.5284 47.1379 42.6257 45.9764C42.7723 44.3877 43.0699 43.103 44.3437 42.0268C44.7873 41.7102 45.2396 41.419 45.7033 41.1328C48.7995 39.1544 50.8007 36.6048 51.8556 33.0469C51.8989 32.9035 51.9422 32.76 51.9868 32.6122C52.8196 29.2639 52.0186 25.7564 50.3068 22.832C48.4645 19.9054 45.4569 17.7588 42.0888 16.9608C37.1351 15.9685 32.5623 17.6785 29.1524 21.3231ZM36.2338 56.4814C35.6871 57.2967 35.7293 58.3007 35.8595 59.2383C36.2517 60.164 36.8652 60.9756 37.7835 61.4205C38.7484 61.6956 39.7134 61.6405 40.6606 61.3367C41.5095 60.7247 42.2856 59.9268 42.5392 58.8867C42.649 57.7702 42.4729 57.0056 41.8361 56.0742C41.0725 55.3308 40.2854 54.887 39.2214 54.7669C37.9116 54.8269 37.039 55.4963 36.2338 56.4814Z" fill="black"/>
</svg>
