<svg width="90" height="90" viewBox="0 0 90 90" fill="none"
  xmlns="http://www.w3.org/2000/svg">
  <g clip-path="url(#clip0_16_9)">
    <path d="M49.3395 1.17553C50.7738 2.21202 51.7674 3.6609 52.7343 5.11962C52.9651 5.46283 53.196 5.80592 53.4271 6.1489C53.5448 6.32391 53.6624 6.49893 53.7836 6.67925C54.3596 7.53093 54.9474 8.37433 55.5358 9.21752C55.6518 9.38388 55.7677 9.55024 55.8872 9.72164C56.123 10.0599 56.3589 10.3982 56.5948 10.7364C57.2018 11.6067 57.8081 12.4775 58.4142 13.3484C58.5322 13.5179 58.6503 13.6875 58.7719 13.8622C59.5124 14.9268 60.2487 15.9943 60.9818 17.0641C61.6252 18.0013 62.2768 18.9326 62.9296 19.8633C63.6594 20.9038 64.3864 21.946 65.1049 22.9944C65.8803 24.1256 66.6616 25.2525 67.445 26.3782C67.5649 26.5505 67.6848 26.7229 67.8083 26.9005C68.4001 27.751 68.9929 28.6007 69.588 29.4488C70.852 31.2525 72.1023 33.0656 73.3337 34.8917C73.4841 35.1143 73.6351 35.3366 73.7867 35.5584C78.9114 43.0652 80.921 52.2592 79.3668 61.2268C79.1114 62.5745 78.7788 63.8974 78.3984 65.2148C78.3488 65.3885 78.3488 65.3885 78.2983 65.5657C75.7591 74.274 69.4876 81.6972 61.6151 86.0696C53.7282 90.3208 43.9456 91.3542 35.321 88.8794C34.8528 88.734 34.389 88.5782 33.9257 88.418C33.812 88.3795 33.6984 88.341 33.5813 88.3014C29.634 86.9507 26.0181 84.9999 22.8515 82.2656C22.7164 82.1498 22.5814 82.034 22.4422 81.9147C20.3768 80.0991 18.464 78.1857 16.8749 75.9375C16.8034 75.8377 16.7319 75.7379 16.6583 75.6351C11.2899 68.0871 9.15757 58.6823 10.5406 49.5367C11.689 42.7567 14.9443 37.2934 18.8316 31.7583C19.2749 31.125 19.7124 30.4879 20.1489 29.8498C20.9718 28.6487 21.8068 27.4563 22.6429 26.2643C23.2662 25.375 23.8856 24.4834 24.4994 23.5876C25.8785 21.5756 27.2761 19.5764 28.6703 17.5749C29.8947 15.8168 31.1184 14.0585 32.3295 12.2913C33.0768 11.2027 33.8353 10.122 34.5937 9.04118C35.1595 8.23418 35.7221 7.42525 36.2789 6.61204C36.5899 6.15787 36.9024 5.70475 37.2149 5.25162C37.3671 5.03001 37.5185 4.80787 37.6691 4.58523C40.4323 0.504307 44.7519 -1.61595 49.3395 1.17553Z" fill="#96DAFE"/>
    <path d="M47.2192 0.439456C48.1962 1.13523 49.111 2.14926 49.3945 3.33985C49.5775 5.22308 49.0158 6.60815 47.9003 8.09693C47.7093 8.35956 47.5184 8.62232 47.3277 8.8852C47.2318 9.01628 47.1358 9.14736 47.037 9.28242C46.6178 9.86114 46.2152 10.4507 45.8129 11.0413C45.0803 12.112 44.3388 13.1762 43.5937 14.2383C42.7864 15.3892 41.9843 16.5434 41.1897 17.7031C40.4725 18.7488 39.7481 19.7896 39.0234 20.8301C38.2291 21.9704 37.4361 23.1116 36.6503 24.2578C35.8822 25.3779 35.1081 26.4938 34.3322 27.6086C34.2136 27.7792 34.0949 27.9497 33.9727 28.1253C33.3582 29.008 32.7432 29.8903 32.1274 30.772C28.5145 35.948 25.1267 40.989 23.5986 47.1973C23.5636 47.3367 23.5287 47.4761 23.4927 47.6197C22.903 50.1464 22.7797 52.7098 22.7856 55.2942C22.7856 55.4389 22.7855 55.5836 22.7855 55.7327C22.7906 58.1857 22.9878 60.5358 23.5546 62.9297C23.6054 63.1495 23.6561 63.3693 23.7084 63.5957C23.8681 64.2046 24.0552 64.7946 24.2577 65.3906C24.3039 65.5295 24.3501 65.6684 24.3976 65.8115C27.5331 75.1658 33.7972 82.2555 42.5699 86.6945C44.7197 87.7508 46.9255 88.4789 49.2654 88.9762C49.9052 89.1174 50.5245 89.2864 51.1523 89.4727C51.1523 89.5307 51.1523 89.5887 51.1523 89.6484C49.136 90.0128 47.1641 90.0702 45.1208 90.0659C44.9582 90.0659 44.7956 90.0658 44.6282 90.0658C40.9313 90.0574 37.4337 89.6311 33.9257 88.418C33.812 88.3795 33.6984 88.341 33.5813 88.3014C29.634 86.9507 26.0181 84.9999 22.8515 82.2656C22.7164 82.1498 22.5814 82.0341 22.4422 81.9148C20.3768 80.0991 18.464 78.1857 16.8749 75.9375C16.8034 75.8377 16.7319 75.7379 16.6583 75.6351C11.2899 68.0871 9.15757 58.6823 10.5406 49.5367C11.689 42.7568 14.9443 37.2934 18.8316 31.7583C19.2749 31.125 19.7124 30.4879 20.1489 29.8499C20.9718 28.6488 21.8068 27.4563 22.6429 26.2643C23.2662 25.375 23.8856 24.4834 24.4994 23.5877C25.8785 21.5756 27.2761 19.5764 28.6703 17.5749C29.8947 15.8169 31.1184 14.0585 32.3295 12.2913C33.0768 11.2027 33.8353 10.1221 34.5937 9.04119C35.1595 8.23419 35.7221 7.42527 36.2789 6.61206C36.5899 6.15789 36.9024 5.70476 37.2149 5.25164C37.3671 5.03003 37.5185 4.80789 37.6691 4.58525C39.1183 2.44492 40.5104 0.893477 43.0396 0.070041C44.4112 -0.183882 45.9786 -0.25837 47.2192 0.439456Z" fill="#55C2EB"/>
    <path d="M63.7048 65.2821C64.9221 66.0423 65.9017 67.1273 66.3711 68.5004C66.6749 70.1631 66.6727 72.0286 65.7421 73.4766C65.6497 73.64 65.6497 73.64 65.5553 73.8068C64.7555 75.0928 63.4338 75.8324 61.993 76.206C60.4484 76.4792 59.1954 76.3713 57.832 75.5859C57.56 75.4337 57.56 75.4337 57.2826 75.2783C56.0743 74.3327 55.1883 73.2361 54.8437 71.7188C54.6843 70.1807 54.7079 68.8275 55.5468 67.5C55.6213 67.3776 55.6959 67.2553 55.7727 67.1292C57.548 64.4984 60.9321 63.9357 63.7048 65.2821Z" fill="#B7F3FF"/>
    <path d="M70.0345 53.0248C71.049 53.4821 71.7956 54.264 72.2702 55.2654C72.6465 56.3993 72.5507 57.5199 72.0594 58.6011C71.4429 59.7014 70.6084 60.2383 69.4337 60.6445C68.2511 60.8148 67.2879 60.6912 66.2717 60.0527C65.533 59.4531 64.9884 58.7344 64.6876 57.832C64.5664 56.5666 64.5222 55.4795 65.3035 54.4304C66.6241 52.9753 68.0877 52.4996 70.0345 53.0248Z" fill="#B7F3FF"/>
  </g>
  <defs>
    <clipPath id="clip0_16_9">
      <rect width="90" height="90" fill="white"/>
    </clipPath>
  </defs>
</svg>
